<?xml version="1.0" standalone="no"?>
<!DOCTYPE svg PUBLIC "-//W3C//DTD SVG 20010904//EN"
 "http://www.w3.org/TR/2001/REC-SVG-20010904/DTD/svg10.dtd">
<svg version="1.0" xmlns="http://www.w3.org/2000/svg"
 width="258.000000pt" height="234.000000pt" viewBox="0 0 258.000000 234.000000"
 preserveAspectRatio="xMidYMid meet">
<metadata>
Created by potrace 1.15, written by Peter Selinger 2001-2017
</metadata>
<g transform="translate(0.000000,234.000000) scale(0.100000,-0.100000)"
fill="#000000" stroke="none">
<path d="M1280 2110 c0 -68 -3 -90 -13 -90 -19 0 -57 -43 -57 -63 0 -10 5 -26
12 -36 10 -17 7 -24 -20 -49 -38 -35 -38 -36 -12 -60 l21 -19 -35 -35 c-19
-19 -38 -48 -42 -64 -4 -16 -29 -53 -56 -83 -98 -108 -180 -323 -208 -549 -9
-71 -9 -100 0 -121 14 -34 67 -61 123 -62 82 -2 84 -3 83 -99 l-1 -85 -57 -3
-58 -3 0 66 c0 51 -3 65 -15 65 -12 0 -15 -14 -15 -65 l0 -65 -55 0 -55 0 0
50 0 50 -120 0 -120 0 0 30 0 30 103 0 c57 0 106 2 108 4 8 8 -3 126 -11 126
-5 0 -10 -21 -12 -47 -3 -48 -3 -48 -40 -51 l-38 -3 0 51 c0 67 -24 64 -28 -3
l-3 -47 -40 0 -39 0 0 65 0 65 30 0 c43 0 96 24 110 51 10 17 10 42 0 113 -21
155 -72 290 -143 379 -19 23 -40 57 -47 75 -7 18 -22 38 -32 43 -15 8 -17 14
-9 22 17 17 13 45 -10 60 -18 13 -19 18 -7 37 12 19 10 24 -15 45 -26 23 -27
27 -27 132 0 59 -5 115 -10 123 -7 11 -29 15 -77 16 -37 1 -101 5 -140 9 -94
10 -103 3 -103 -80 0 -38 5 -66 13 -72 15 -13 131 -27 220 -27 l67 0 0 -34 c0
-25 -8 -42 -31 -63 -26 -24 -29 -31 -19 -50 10 -17 8 -24 -9 -40 -23 -21 -27
-44 -11 -54 6 -4 0 -18 -15 -37 -14 -16 -25 -36 -25 -43 0 -8 -18 -35 -40 -60
-56 -65 -98 -152 -125 -259 -31 -122 -40 -208 -25 -236 14 -27 68 -50 115 -50
l35 0 0 -65 0 -65 -40 0 -40 0 0 50 c0 38 -4 50 -15 50 -11 0 -15 -12 -15 -50
l0 -50 -34 0 c-34 0 -35 1 -38 47 -2 26 -9 48 -15 51 -10 3 -13 -14 -13 -62
l0 -66 106 0 105 0 -3 -27 -3 -28 -93 -3 c-86 -3 -113 -12 -76 -26 9 -3 173
-6 365 -6 l349 0 0 -35 0 -35 -362 -2 c-277 -2 -362 -6 -365 -15 -4 -10 104
-13 504 -15 l508 -3 3 -42 3 -42 -142 -3 c-103 -2 -144 -6 -147 -15 -3 -10
103 -13 508 -13 405 0 511 3 508 13 -3 9 -44 13 -146 15 l-142 3 0 44 0 45
511 0 c404 0 510 3 507 13 -4 9 -88 13 -367 15 l-362 2 3 38 3 37 359 0 c272
0 360 3 363 12 3 9 -21 13 -89 15 l-93 3 -3 28 -3 27 105 0 106 0 0 65 c0 36
-4 65 -9 65 -13 0 -21 -26 -21 -66 0 -34 -1 -35 -32 -32 -32 3 -33 5 -36 51
-4 63 -26 58 -30 -7 l-3 -47 -37 3 -37 3 -3 61 -3 61 53 6 c29 4 64 15 78 26
23 17 25 24 23 92 -5 144 -61 306 -145 416 -27 34 -48 67 -48 72 0 5 -11 23
-25 39 -15 19 -21 33 -15 37 17 11 11 42 -12 57 -19 13 -21 18 -10 31 16 19 3
51 -28 67 -15 8 -20 21 -20 48 l0 37 73 1 c92 1 198 14 215 27 7 6 12 34 12
72 0 83 -9 90 -103 80 -39 -4 -103 -8 -141 -9 -84 -1 -84 -1 -85 -148 -1 -63
-5 -108 -11 -108 -5 0 -17 -11 -26 -25 -14 -21 -14 -28 -3 -41 12 -14 11 -19
-9 -32 -24 -16 -30 -48 -9 -55 8 -3 3 -14 -16 -32 -15 -16 -30 -40 -34 -54 -3
-14 -22 -44 -41 -65 -67 -75 -120 -217 -142 -384 -10 -72 -9 -87 4 -107 15
-23 69 -45 112 -45 26 0 32 -19 26 -82 l-4 -48 -39 0 -39 0 0 50 c0 38 -4 50
-15 50 -11 0 -15 -12 -15 -50 l0 -50 -34 0 c-34 0 -35 1 -38 47 -2 26 -9 48
-15 51 -10 3 -13 -14 -13 -62 l0 -66 104 0 c102 0 104 0 108 -25 3 -13 3 -27
0 -30 -3 -3 -59 -5 -124 -5 l-118 0 0 -50 0 -50 -55 0 -55 0 0 65 c0 37 -4 65
-10 65 -6 0 -10 -28 -10 -65 l0 -65 -65 0 -65 0 -1 73 c-1 73 0 99 6 105 2 2
32 7 68 12 72 9 102 21 117 50 29 55 -9 292 -76 473 -27 70 -106 198 -142 231
-12 11 -22 24 -22 29 0 27 -43 94 -71 111 -30 18 -30 18 -10 33 37 26 27 51
-37 89 -1 1 5 15 15 31 16 29 16 32 -1 58 -10 15 -27 30 -37 32 -17 5 -19 15
-19 94 0 72 -3 89 -15 89 -12 0 -15 -17 -15 -90z m-945 -34 l60 -2 3 -52 3
-51 -36 -7 c-20 -3 -57 -3 -83 0 -26 4 -71 10 -99 13 l-53 5 0 56 0 55 73 -8
c39 -4 99 -8 132 -9z m2135 -40 l0 -54 -52 -5 c-29 -3 -74 -9 -100 -13 -26 -3
-63 -3 -83 0 l-36 7 3 52 3 52 50 -3 c28 -1 66 2 85 7 19 5 56 9 83 10 l47 1
0 -54z m-1078 -293 c11 -10 26 -30 34 -45 13 -25 12 -28 -7 -39 -26 -13 -168
-17 -221 -6 -23 5 -38 14 -38 23 0 25 33 66 65 81 41 19 140 11 167 -14z
m-255 -136 c-65 -100 -138 -411 -149 -637 -3 -54 -4 -55 -32 -53 -16 1 -37 10
-48 20 -18 16 -19 26 -13 91 21 228 111 467 218 579 34 37 48 36 24 0z m378
-51 c56 -80 87 -143 118 -241 30 -96 57 -248 57 -322 0 -48 -2 -54 -30 -68
-53 -28 -57 -23 -64 78 -17 227 -61 428 -121 554 -19 39 -35 75 -35 78 0 15
33 -21 75 -79z m-65 -20 c21 -45 50 -128 64 -186 26 -108 51 -268 43 -277 -3
-2 -42 17 -88 44 -83 48 -83 48 -174 48 -91 0 -91 0 -174 -48 -46 -27 -85 -46
-89 -43 -17 18 48 326 93 438 45 111 37 106 171 105 l117 0 37 -81z m-939 -17
c41 -76 104 -328 86 -345 -3 -4 -32 9 -64 27 -89 51 -178 46 -275 -18 -15 -9
-30 -14 -34 -11 -12 13 44 257 73 320 l30 63 83 -1 83 0 18 -35z m1785 -12
c37 -72 96 -318 80 -334 -3 -3 -31 10 -63 28 -49 28 -67 33 -123 33 -56 0 -74
-5 -123 -33 -32 -18 -60 -31 -63 -28 -16 16 43 261 80 335 l24 47 82 -1 83 0
23 -47z m-2021 14 c-36 -71 -71 -230 -90 -413 -5 -47 -10 -58 -24 -58 -10 0
-24 7 -31 15 -30 36 35 309 96 407 44 71 78 105 49 49z m354 -116 c30 -70 71
-247 71 -302 0 -16 -5 -34 -12 -41 -18 -18 -48 -15 -48 6 0 9 -7 69 -14 132
-16 132 -36 217 -71 298 l-25 57 35 -40 c19 -22 48 -72 64 -110z m1415 87
c-34 -85 -53 -164 -65 -272 -6 -52 -13 -114 -15 -136 -4 -36 -8 -41 -25 -37
-33 9 -40 35 -29 113 19 137 51 240 98 315 23 37 52 75 57 75 2 0 -8 -26 -21
-58z m357 -69 c54 -113 95 -326 69 -358 -7 -8 -20 -15 -29 -15 -15 0 -20 21
-34 133 -19 149 -39 236 -73 317 l-24 55 31 -35 c16 -19 43 -63 60 -97z
m-1937 -224 c21 -6 49 -21 62 -34 23 -23 24 -31 24 -155 0 -131 0 -131 -22
-128 -20 3 -23 10 -26 51 -4 63 -26 58 -30 -6 l-3 -47 -55 0 -54 0 0 50 c0 38
-4 50 -15 50 -11 0 -15 -12 -15 -50 0 -47 -2 -50 -25 -50 l-25 0 0 133 c0 128
1 135 24 156 40 38 95 48 160 30z m1817 -16 c17 -10 32 -27 34 -38 7 -33 14
-237 8 -251 -3 -8 -16 -14 -29 -14 -22 0 -24 4 -24 51 0 66 -24 62 -28 -4 l-3
-47 -55 0 -54 0 0 50 c0 38 -4 50 -15 50 -11 0 -15 -12 -15 -51 0 -47 -2 -50
-22 -47 -22 3 -23 7 -26 120 -2 91 1 125 13 148 9 16 17 30 18 30 1 0 20 7 42
15 48 18 114 13 156 -12z m-859 -71 c59 -37 66 -64 68 -254 l1 -168 -41 0 -40
0 0 65 c0 37 -4 65 -10 65 -6 0 -10 -28 -10 -65 l0 -65 -85 0 -84 0 -3 62 c-2
38 -8 63 -15 66 -10 3 -13 -14 -13 -62 l0 -66 -45 0 -45 0 0 148 c0 187 5 215
44 252 40 40 76 50 167 46 57 -2 85 -8 111 -24z m-874 -289 l-3 -28 -132 -3
-133 -3 0 31 0 30 136 0 135 0 -3 -27z m1772 -3 l0 -31 -132 3 -133 3 -3 28
-3 27 135 0 136 0 0 -30z m-832 -208 l3 -42 -193 2 -193 3 -3 28 c-7 58 -9 58
195 55 l188 -3 3 -43z"/>
<path d="M503 408 c6 -19 1588 -19 1595 0 3 9 -161 12 -798 12 -637 0 -801 -3
-797 -12z"/>
<path d="M827 313 c-4 -3 -7 -10 -7 -15 0 -4 216 -8 481 -8 380 0 480 3 477
13 -4 9 -109 13 -475 15 -258 1 -473 -1 -476 -5z"/>
</g>
</svg>
