<svg height="511pt" viewBox="-31 0 511 511.99949" width="511pt" xmlns="http://www.w3.org/2000/svg"><path d="m446.671875 389.460938c-2.503906-2.183594-5.929687-2.980469-9.140625-2.128907l-54.261719 14.414063-49.824219-25.878906c-2.910156-1.507813-6.371093-1.5-9.269531.023437-2.898437 1.527344-4.867187 4.375-5.269531 7.625l-11.277344 91.054687c-4.175781-.316406-8.648437-.632812-12.617187-.90625v-75.511718c0-3.082032-1.421875-5.992188-3.851563-7.886719l-58.042968-45.261719c-3.617188-2.820312-8.691407-2.820312-12.304688 0l-58.042969 45.261719c-2.429687 1.894531-3.851562 4.804687-3.851562 7.886719v75.507812c-4.886719.34375-10.695313.765625-16.023438 1.183594l-11.195312-91.316406c-.398438-3.253906-2.367188-6.105469-5.265625-7.632813-2.902344-1.527343-6.367188-1.539062-9.273438-.027343l-49.824218 25.878906-54.261719-14.414063c-3.207031-.851562-6.628907-.058593-9.136719 2.117188-2.503906 2.179687-3.765625 5.457031-3.363281 8.75l12.722656 105.203125s1.859375 8.804687 11.964844 8.59375c0 0 75.410156-13.226563 109.683593-16.402344 11.28125-1.054688 35.300782-2.660156 36.300782-2.71875 36.761718-2.066406 74.046875-2.078125 110.769531-.027344 1.335937.078125 23.46875 1.527344 33.71875 2.445313 36.699219 3.285156 73.613281 8.683593 109.710937 16.046875 5.40625 1.105468 10.695313-2.390625 11.800782-7.804688.207031-1.011718 12.78125-105.308594 12.78125-105.308594.40625-3.296874-.851563-6.582031-3.355469-8.765624zm-109.679687 10.796874 40.488281 21.03125c2.214843 1.148438 4.777343 1.429688 7.183593.789063l43.691407-11.605469-9.761719 79.113282c-30.046875-5.78125-60.570312-10.230469-91.019531-13.269532zm-271.050782 21.820313c2.40625.640625 4.96875.359375 7.179688-.789063l40.472656-21.023437 9.363281 76.398437c-30.421875 3.132813-60.996093 7.695313-91.097656 13.59375l-9.648437-79.796874zm112.984375 50.367187v-69.40625l48.039063-37.457031 48.039062 37.457031v69.414063c-31.9375-1.519531-64.195312-1.519531-96.078125-.007813zm0 0"/><path d="m3.929688 122.75c2.503906 2.183594 5.933593 2.980469 9.144531 2.128906l54.261719-14.417968 49.824218 25.878906c1.445313.753906 3.027344 1.128906 4.609375 1.128906 1.601563 0 3.199219-.382812 4.660157-1.152344 2.898437-1.523437 4.867187-4.371094 5.269531-7.621094l11.273437-91.054687c4.179688.3125 8.652344.628906 12.621094.902344v75.511719c0 3.082031 1.421875 5.992187 3.851562 7.890624l58.046876 45.257813c1.804687 1.410156 3.976562 2.117187 6.148437 2.117187s4.34375-.707031 6.152344-2.117187l58.042969-45.257813c2.433593-1.898437 3.851562-4.808593 3.851562-7.890624v-75.507813c4.886719-.34375 10.695312-.765625 16.023438-1.183594l11.195312 91.316407c.398438 3.253906 2.367188 6.105468 5.265625 7.632812 1.460937.769531 3.0625 1.152344 4.664063 1.152344 1.582031 0 3.164062-.375 4.613281-1.125l49.820312-25.878906 54.265625 14.414062c3.207032.851562 6.628906.058594 9.132813-2.117188 2.503906-2.179687 3.765625-5.457031 3.367187-8.75l-12.722656-105.148437c-.019531-.179687-.710938-2.722656-.714844-2.734375-1.734375-4.140625-6.09375-6.6875-10.65625-6.019531-.011718 0-.5.085937-.578125.101562l-7.007812 1.425781c-33.875 6.765626-68.425781 11.804688-102.699219 14.980469-11.289062 1.058594-35.300781 2.660157-36.300781 2.71875-36.765625 2.066407-74.046875 2.078125-110.769531.03125-1.332032-.082031-23.457032-1.53125-33.71875-2.449219-36.699219-3.285156-73.613282-8.683593-109.707032-16.046874-5.417968-1.101563-10.699218 2.390624-11.804687 7.804687-.203125 1.011719-12.777344 105.3125-12.777344 105.3125-.410156 3.296875.847656 6.582031 3.351563 8.765625zm109.679687-10.796875-40.488281-21.03125c-2.210938-1.148437-4.769532-1.429687-7.179688-.792969l-43.695312 11.609375 9.765625-79.117187c30.042969 5.785156 60.570312 10.234375 91.015625 13.269531zm271.050781-21.824219c-2.40625-.636718-4.964844-.355468-7.179687.792969l-40.472657 21.019531-9.363281-76.398437c30.425781-3.132813 60.996094-7.695313 91.097657-13.59375l9.652343 79.796875zm-112.980468-50.363281v69.402344l-48.042969 37.460937-48.039063-37.460937v-69.410157c15.988282.761719 32.050782 1.140626 48.113282 1.140626 16.023437 0 32.042968-.378907 47.96875-1.132813zm0 0"/><path d="m438.664062 353.542969c-.71875 0-1.445312-.078125-2.160156-.234375-5.273437-1.167969-10.570312-2.292969-15.75-3.34375-35.546875-7.25-71.894531-12.566406-108.039062-15.804688-10.777344-.964844-20.855469-1.707031-30.816406-2.273437l-2.382813-.132813c-36.164063-2.015625-72.878906-2.007812-109.082031.027344-.570313.03125-1.058594.0625-1.554688.09375-.027344 0-.148437.007812-.171875.011719-11.144531.636719-22.589843 1.503906-34.019531 2.570312-33.753906 3.128907-67.773438 8.09375-101.128906 14.753907-.0625.011718-.121094.023437-.183594.035156-6.824219 1.371094-13.132812 2.699218-19.273438 4.0625-2.964843.652344-6.0625-.070313-8.425781-1.96875-2.367187-1.898438-3.742187-4.765625-3.742187-7.800782v-174.871093c0-3.03125 1.375-5.902344 3.738281-7.800781 2.367187-1.898438 5.460937-2.621094 8.425781-1.964844 5.269532 1.164062 10.566406 2.289062 15.75 3.339844 35.546875 7.25 71.898438 12.570312 108.039063 15.804687 10.777343.964844 20.855469 1.710937 30.816406 2.277344l2.382813.132812c36.164062 2.015625 72.878906 2.003907 109.082031-.03125.566406-.027343 1.054687-.058593 1.546875-.089843l.105468-.007813c11.21875-.644531 22.660157-1.507813 34.089844-2.578125 5.507813-.511719 10.378906 3.527344 10.894532 9.027344.515624 5.503906-3.527344 10.378906-9.03125 10.894531-11.664063 1.089844-23.351563 1.976563-34.734376 2.625l-.03125.003906c-.601562.039063-1.191406.078125-1.789062.105469-36.875 2.074219-74.339844 2.082031-111.285156.023438l-2.398438-.132813c-10.144531-.578125-20.4375-1.335937-31.433594-2.320313-36.882812-3.304687-73.972656-8.730468-110.246093-16.125-1.296875-.265624-2.601563-.535156-3.914063-.804687v150.117187c2.484375-.515624 5.019532-1.035156 7.632813-1.558593.066406-.015625.132812-.027344.199219-.039063 33.996093-6.785156 68.667968-11.839844 103.058593-15.027344 11.660157-1.089843 23.34375-1.976562 34.730469-2.628906.625-.039062 1.21875-.078125 1.820312-.105468 36.871094-2.074219 74.335938-2.082032 111.285157-.023438l2.398437.132812c10.144532.578126 20.4375 1.335938 31.429688 2.320313 36.886718 3.304687 73.976562 8.730469 110.25 16.125 1.296875.265625 2.601562.535156 3.914062.804687v-150.117187c-2.484375.515625-5.019531 1.035156-7.632812 1.558594-.089844.019531-.179688.035156-.269532.050781-5.445312.9375-10.648437-2.710938-11.585937-8.15625-.933594-5.414062 2.644531-10.554688 8.035156-11.535156 6.839844-1.375 13.148438-2.703125 19.292969-4.0625 2.957031-.660156 6.058594.0625 8.425781 1.964844 2.363281 1.898437 3.742188 4.769531 3.742188 7.800781v174.871093c0 3.03125-1.378907 5.902344-3.742188 7.800782-1.789062 1.441406-4.003906 2.203125-6.261719 2.203125zm0 0"/><path d="m368.027344 191.617188c-.648438 0-1.308594-.070313-1.960938-.199219-.628906-.128907-1.257812-.320313-1.871094-.570313-.597656-.25-1.179687-.558594-1.71875-.917968-.550781-.363282-1.0625-.78125-1.519531-1.242188-.460937-.460938-.882812-.980469-1.25-1.519531-.359375-.550781-.671875-1.132813-.921875-1.730469-.25-.601562-.441406-1.230469-.570312-1.871094-.128906-.652344-.191406-1.300781-.191406-1.953125 0-2.640625 1.0625-5.222656 2.933593-7.082031.460938-.460938.96875-.882812 1.519531-1.242188.539063-.359374 1.121094-.667968 1.722657-.917968.609375-.25 1.238281-.441406 1.871093-.570313 1.289063-.261719 2.617188-.261719 3.910157 0 .640625.128907 1.269531.320313 1.871093.570313.609376.25 1.191407.558594 1.730469.917968.550781.359376 1.058594.78125 1.519531 1.242188 1.859376 1.871094 2.933594 4.441406 2.933594 7.082031 0 .652344-.070312 1.300781-.203125 1.953125-.128906.636719-.320312 1.269532-.570312 1.871094-.25.597656-.558594 1.179688-.917969 1.730469-.359375.539062-.78125 1.058593-1.242188 1.519531-.457031.460938-.96875.878906-1.519531 1.242188-.539062.359374-1.121093.667968-1.730469.917968-.601562.25-1.230468.441406-1.871093.570313-.640625.128906-1.300781.199219-1.953125.199219zm0 0"/><path d="m102.445312 217.472656c13.667969 0 24.363282 6.335938 24.363282 23.371094v25.652344c0 17.035156-10.695313 23.371094-24.363282 23.371094h-17.53125c-4.0625 0-6.734374-2.179688-6.734374-4.65625v-63.085938c0-2.476562 2.671874-4.65625 6.734374-4.65625h17.53125zm-8.816406 13.46875v45.457032h8.816406c5.546876 0 8.914063-3.167969 8.914063-9.902344v-25.652344c0-6.734375-3.367187-9.902344-8.914063-9.902344zm0 0"/><path d="m136.613281 222.125c0-3.265625 3.863281-4.652344 7.726563-4.652344 3.863281 0 7.722656 1.382813 7.722656 4.652344v62.988281c0 3.167969-3.859375 4.753907-7.722656 4.753907-3.863282 0-7.726563-1.585938-7.726563-4.753907zm0 0"/><path d="m228.324219 285.3125c-1.191407 3.464844-5.648438 5.148438-10.203125 5.148438-4.457032 0-9.210938-1.679688-10.003906-5.148438l-5.148438-23.472656-5.148438 23.472656c-.792968 3.464844-5.546874 5.148438-10.003906 5.148438-4.558594 0-9.113281-1.679688-10.203125-5.148438l-19.707031-60.414062c-.101562-.296876-.199219-.792969-.199219-1.289063 0-3.367187 5.546875-6.136719 10.003907-6.136719 2.375 0 4.359374.789063 4.953124 2.871094l15.050782 50.804688 7.824218-33.476563c.59375-2.671875 4.0625-4.058594 7.429688-4.058594s6.832031 1.386719 7.425781 4.058594l7.824219 33.476563 15.054688-50.804688c.59375-2.082031 2.574218-2.871094 4.953124-2.871094 4.457032 0 10 2.769532 10 6.136719 0 .496094-.097656.992187-.195312 1.289063zm0 0"/><path d="m244.960938 283.53125c0-.296875.101562-.695312.199218-1.089844l18.417969-60.414062c1.089844-3.464844 5.546875-5.152344 10.101563-5.152344 4.558593 0 9.015624 1.6875 10.105468 5.152344l18.519532 60.414062c.101562.394532.195312.792969.195312 1.089844 0 3.664062-5.644531 6.335938-9.902344 6.335938-2.476562 0-4.457031-.792969-5.050781-2.871094l-3.367187-12.378906h-20.898438l-3.367188 12.378906c-.59375 2.078125-2.574218 2.871094-5.050781 2.871094-4.257812 0-9.902343-2.671876-9.902343-6.335938zm35.953124-20.800781-7.230468-26.542969-7.230469 26.542969zm0 0"/><path d="m314.980469 289.867188c-3.363281 0-6.734375-1.585938-6.734375-4.753907v-62.988281c0-3.265625 3.863281-4.652344 7.726562-4.652344 3.863282 0 7.726563 1.382813 7.726563 4.652344v54.273438h22.578125c2.972656 0 4.457031 3.367187 4.457031 6.734374 0 3.367188-1.484375 6.734376-4.457031 6.734376zm0 0"/><path d="m356.972656 222.125c0-3.265625 3.863282-4.652344 7.726563-4.652344s7.726562 1.382813 7.726562 4.652344v62.988281c0 3.167969-3.863281 4.753907-7.726562 4.753907s-7.726563-1.585938-7.726563-4.753907zm0 0"/></svg>