<svg id="Layer_1" height="512" viewBox="0 0 512 512" width="512" xmlns="http://www.w3.org/2000/svg" data-name="Layer 1"><path d="m28.553 193.962a17.553 17.553 0 1 0 -17.553-17.553 17.573 17.573 0 0 0 17.553 17.553zm0-24.78a7.228 7.228 0 1 1 -7.228 7.227 7.235 7.235 0 0 1 7.228-7.227z"/><path d="m470.414 220.411a17.553 17.553 0 1 0 17.553 17.553 17.573 17.573 0 0 0 -17.553-17.553zm0 24.781a7.228 7.228 0 1 1 7.227-7.228 7.236 7.236 0 0 1 -7.227 7.228z"/><path d="m73.086 433.482a5.163 5.163 0 0 0 7.3 0l95.333-95.333 19.05 19.051a5.163 5.163 0 0 0 7.3 0l166.995-167 7.015 7.015a5.163 5.163 0 0 0 8.743-2.8l21.331-127.983a5.163 5.163 0 0 0 -5.941-5.941l-127.984 21.331a5.163 5.163 0 0 0 -2.8 8.743l7.015 7.014-166.995 167a5.163 5.163 0 0 0 0 7.3l58.973 58.973-95.335 95.329a5.163 5.163 0 0 0 0 7.301zm321.694-361.618-18.493 110.959-3.572-3.572-85.323-85.322-3.571-3.572zm-111.038 33.016 30.9 30.9-54.081-7.726zm-32.3 32.3 75.376 10.768 32.2 32.2-131.729-18.814zm-33.279 33.28 136.537 19.5-24.15 24.15-136.537-19.5zm-33.276 33.276 136.537 19.505-24.149 24.15-136.538-19.5zm-33.276 33.276 136.538 19.5-24.149 24.155-136.538-19.5zm-28.462 33.963 131.724 18.818-24.15 24.15-75.375-10.768zm44.368 44.368 54.08 7.726-23.177 23.177z"/><path d="m61.06 455.892a5.162 5.162 0 0 0 4.909 5.4l15.066.723q.126.006.252.006a5.162 5.162 0 0 0 .243-10.319l-15.066-.723a5.16 5.16 0 0 0 -5.404 4.913z"/><path d="m36.089 459.856a5.162 5.162 0 0 0 .244-10.319l-15.066-.723a5.162 5.162 0 1 0 -.5 10.313l15.066.723c.089.004.173.006.256.006z"/><path d="m51.627 445.508c.084 0 .168.006.251.006a5.163 5.163 0 0 0 5.153-4.915l.723-15.066a5.162 5.162 0 0 0 -10.313-.5l-.723 15.067a5.162 5.162 0 0 0 4.909 5.408z"/><path d="m44.549 485.3a5.162 5.162 0 0 0 4.909 5.4c.084 0 .168.006.251.006a5.163 5.163 0 0 0 5.153-4.915l.723-15.066a5.162 5.162 0 0 0 -10.313-.5z"/><path d="m277.166 324.8-19.619 19.618a5.163 5.163 0 1 0 7.3 7.3l19.62-19.618a5.163 5.163 0 1 0 -7.3-7.3z"/><path d="m346.793 255.171-46.647 46.648a5.163 5.163 0 0 0 7.3 7.3l46.647-46.647a5.163 5.163 0 0 0 -7.3-7.3z"/><path d="m371.2 230.769-.863.863a5.163 5.163 0 0 0 7.3 7.3l.863-.863a5.163 5.163 0 0 0 -7.3-7.3z"/><path d="m496.85 111.15a17.169 17.169 0 0 1 -13.5-13.5 5.163 5.163 0 0 0 -10.125 0 17.168 17.168 0 0 1 -13.5 13.5 5.162 5.162 0 0 0 0 10.124 17.166 17.166 0 0 1 13.5 13.5 5.163 5.163 0 0 0 10.125 0 17.168 17.168 0 0 1 13.5-13.5 5.162 5.162 0 0 0 0-10.124zm-18.565 10.339a27.419 27.419 0 0 0 -5.277-5.277 27.447 27.447 0 0 0 5.277-5.277 27.447 27.447 0 0 0 5.277 5.277 27.419 27.419 0 0 0 -5.277 5.277z"/><path d="m163.073 62.57a5.163 5.163 0 0 0 10.125 0 17.166 17.166 0 0 1 13.5-13.5 5.163 5.163 0 0 0 0-10.125 17.166 17.166 0 0 1 -13.5-13.5 5.163 5.163 0 0 0 -10.125 0 17.166 17.166 0 0 1 -13.5 13.5 5.163 5.163 0 0 0 0 10.125 17.166 17.166 0 0 1 13.5 13.5zm5.062-23.843a27.419 27.419 0 0 0 5.277 5.273 27.475 27.475 0 0 0 -5.277 5.277 27.419 27.419 0 0 0 -5.277-5.277 27.362 27.362 0 0 0 5.277-5.273z"/></svg>