<svg xmlns="http://www.w3.org/2000/svg" width="1923" height="210" viewBox="0 0 1923 210"><script xmlns=""/><g fill="none"><path fill="#fa8d19" d="M0 0h1923v210H0z"/><g fill="#FFF"><path d="M1919.723 194.081c-.822-.458-1.106-1.514-.64-2.34a1.695 1.695 0 0 1 2.327-.654c.821.459 1.106 1.515.65 2.34a1.718 1.718 0 0 1-2.337.654zm-4.976-26.103a1.726 1.726 0 0 1-.605-2.352 1.7 1.7 0 0 1 2.342-.608 1.717 1.717 0 0 1-.869 3.2c-.297 0-.593-.081-.868-.24zm-12.056 19.475a1.713 1.713 0 0 1-.514-2.375 1.72 1.72 0 0 1 2.374-.515 1.737 1.737 0 0 1 .503 2.384c-.332.506-.879.78-1.44.78-.32 0-.638-.08-.923-.274zm-12.801 19.004a1.733 1.733 0 0 1-.422-2.408 1.715 1.715 0 0 1 2.387-.426c.775.552.958 1.618.421 2.398a1.715 1.715 0 0 1-1.404.735c-.342 0-.686-.091-.982-.3zm25.618-78.705a1.651 1.651 0 1 1 1.188-3.082 1.67 1.67 0 0 1 .948 2.142 1.667 1.667 0 0 1-1.542 1.056c-.206 0-.4-.035-.594-.116zm-8.965 21.084a1.64 1.64 0 0 1-.81-2.19h-.012a1.652 1.652 0 0 1 2.192-.826 1.659 1.659 0 0 1 .81 2.19v.012a1.635 1.635 0 0 1-1.495.963c-.228 0-.467-.045-.685-.149zm-10.096 20.555a1.646 1.646 0 0 1-.696-2.224 1.648 1.648 0 0 1 2.227-.711c.8.425 1.12 1.422.696 2.237a1.65 1.65 0 0 1-1.46.881c-.264 0-.527-.056-.767-.183zm-11.054 20.052a1.642 1.642 0 0 1-.593-2.259 1.64 1.64 0 0 1 2.249-.608 1.668 1.668 0 0 1 .605 2.26c-.308.538-.87.824-1.44.824-.273 0-.559-.069-.82-.217zm-11.843 19.592a1.673 1.673 0 0 1-.525-2.293c.492-.767 1.507-1.009 2.273-.515a1.658 1.658 0 0 1-.88 3.061c-.297 0-.594-.08-.868-.253zm20.807-197.982a1.613 1.613 0 0 1 .921-2.065c.808-.31 1.719.105 2.036.93a1.6 1.6 0 0 1-.909 2.052 1.586 1.586 0 0 1-2.049-.917zm6.441 21.733a1.603 1.603 0 0 1 1.205-1.902 1.586 1.586 0 0 1 1.878 1.215 1.598 1.598 0 0 1-1.206 1.904 1.581 1.581 0 0 1-1.876-1.217zm3.037 22.448a1.595 1.595 0 0 1 1.502-1.675 1.592 1.592 0 0 1 1.661 1.514 1.6 1.6 0 0 1-1.49 1.675h-.092c-.83 0-1.535-.665-1.58-1.514zm.49 24.397a1.579 1.579 0 0 1-1.378-1.767c.103-.872.888-1.504 1.753-1.387a1.577 1.577 0 0 1 1.377 1.765 1.578 1.578 0 0 1-1.56 1.41l-.193-.021zm-3.847 22.606a1.587 1.587 0 0 1-1.217-1.882 1.577 1.577 0 0 1 1.867-1.239 1.597 1.597 0 0 1 1.216 1.894 1.574 1.574 0 0 1-1.546 1.261l-.32-.034zm-5.678 22.204a1.59 1.59 0 0 1-1.069-1.973 1.569 1.569 0 0 1 1.957-1.077 1.576 1.576 0 0 1 1.07 1.973h.013a1.594 1.594 0 0 1-1.527 1.146c-.148 0-.296-.022-.444-.069zm-7.282 21.725c-.807-.299-1.227-1.217-.921-2.042a1.566 1.566 0 0 1 2.027-.942 1.597 1.597 0 0 1 .93 2.042 1.587 1.587 0 0 1-1.477 1.044 1.61 1.61 0 0 1-.56-.102zm-8.623 21.22a1.595 1.595 0 0 1-.82-2.1 1.576 1.576 0 0 1 2.083-.815 1.609 1.609 0 0 1 .818 2.099c-.26.596-.84.953-1.455.953-.205 0-.422-.046-.626-.138zm-9.74 20.725a1.6 1.6 0 0 1-.717-2.134 1.583 1.583 0 0 1 2.128-.722 1.603 1.603 0 0 1 .705 2.133v.011a1.582 1.582 0 0 1-1.421.883c-.23 0-.477-.057-.695-.171zm-10.604 20.29a1.604 1.604 0 0 1-.626-2.168 1.566 1.566 0 0 1 2.139-.632 1.608 1.608 0 0 1 .627 2.168 1.57 1.57 0 0 1-2.14.631zm1.701-201.778a1.552 1.552 0 0 1 .72-2.04 1.527 1.527 0 0 1 1.308 2.762 1.43 1.43 0 0 1-.65.15c-.568 0-1.114-.32-1.378-.872zm8.48 21.068c-.26-.801.16-1.66.956-1.937a1.516 1.516 0 0 1 1.924.963c.262.803-.158 1.674-.956 1.938-.16.057-.318.08-.477.08-.638 0-1.23-.402-1.447-1.044zm5.771 21.95a1.524 1.524 0 0 1 1.206-1.787c.82-.148 1.617.39 1.776 1.215a1.543 1.543 0 0 1-1.207 1.789l-.285.032a1.525 1.525 0 0 1-1.49-1.249zm2.458 22.512a1.537 1.537 0 0 1 1.49-1.56c.832-.021 1.526.654 1.55 1.504a1.537 1.537 0 0 1-1.492 1.557h-.023a1.53 1.53 0 0 1-1.525-1.501zm.41 24.381a1.524 1.524 0 0 1-1.365-1.662 1.51 1.51 0 0 1 1.649-1.376c.842.079 1.446.825 1.367 1.662a1.513 1.513 0 0 1-1.503 1.387l-.148-.01zm-3.415 22.66c-.819-.161-1.353-.963-1.205-1.8a1.52 1.52 0 0 1 1.787-1.203c.819.161 1.353.963 1.194 1.788a1.514 1.514 0 0 1-1.49 1.238l-.286-.023zm-5.348 22.272a1.542 1.542 0 0 1-1.06-1.891 1.505 1.505 0 0 1 1.868-1.057 1.524 1.524 0 0 1-.41 2.993c-.126 0-.263-.012-.398-.045zm-6.943 21.823c-.797-.287-1.22-1.159-.933-1.948a1.512 1.512 0 0 1 1.934-.94 1.528 1.528 0 0 1 .923 1.949h.01a1.528 1.528 0 0 1-1.445 1.019c-.159 0-.33-.023-.49-.08zm-8.207 21.376a1.529 1.529 0 0 1-.818-1.994 1.515 1.515 0 0 1 1.982-.825 1.53 1.53 0 0 1 .818 1.995c-.239.584-.798.94-1.4.94-.194 0-.388-.034-.582-.116zm-9.126 20.999a1.533 1.533 0 0 1-.751-2.029 1.51 1.51 0 0 1 2.014-.745 1.516 1.516 0 0 1 .74 2.018c-.25.561-.808.894-1.377.894-.217 0-.422-.046-.626-.138zM1823.393 4.999a1.468 1.468 0 0 1 .626-1.972 1.458 1.458 0 0 1 1.96.63c.363.722.09 1.605-.626 1.972a1.41 1.41 0 0 1-.66.16 1.442 1.442 0 0 1-1.3-.79zm9.553 20.689a1.469 1.469 0 0 1 .776-1.915c.74-.32 1.593.024 1.912.768a1.484 1.484 0 0 1-.773 1.927c-.193.08-.388.113-.57.113a1.46 1.46 0 0 1-1.345-.893zm8.153 21.308a1.449 1.449 0 0 1 .889-1.857 1.44 1.44 0 0 1 1.856.894 1.47 1.47 0 0 1-.888 1.868 1.71 1.71 0 0 1-.479.08 1.454 1.454 0 0 1-1.378-.985zm6.992 21.755h.012c-.239-.767.205-1.581.978-1.821a1.443 1.443 0 0 1 1.8.986 1.46 1.46 0 0 1-.968 1.821 1.387 1.387 0 0 1-.42.058 1.46 1.46 0 0 1-1.402-1.044zm2.323 23.545a1.466 1.466 0 0 1-1.287-1.618 1.458 1.458 0 0 1 1.606-1.294 1.467 1.467 0 1 1-.16 2.922l-.159-.01zm-3.017 22.717a1.464 1.464 0 0 1-1.23-1.662 1.457 1.457 0 1 1 2.882.436 1.473 1.473 0 0 1-1.447 1.25l-.205-.024zm-3.883 22.592a1.456 1.456 0 0 1-1.16-1.708 1.45 1.45 0 0 1 1.695-1.17c.797.151 1.31.918 1.162 1.709a1.445 1.445 0 0 1-1.423 1.193l-.274-.024zm-4.702 22.431a1.458 1.458 0 0 1-1.093-1.753 1.449 1.449 0 0 1 1.741-1.1 1.455 1.455 0 0 1 1.094 1.754 1.45 1.45 0 0 1-1.742 1.1zm-5.489 22.248a1.467 1.467 0 0 1-1.037-1.787 1.447 1.447 0 0 1 1.777-1.042 1.458 1.458 0 0 1 1.037 1.787 1.46 1.46 0 0 1-1.777 1.042zm-6.263 22.044a1.469 1.469 0 0 1-.978-1.823h.01a1.435 1.435 0 0 1 1.81-.975 1.457 1.457 0 0 1 .968 1.822 1.457 1.457 0 0 1-1.389 1.044c-.136 0-.284-.022-.42-.068zm-28.23-183.077a1.425 1.425 0 0 1 .616-1.892 1.394 1.394 0 0 1 1.867.631 1.401 1.401 0 0 1-.615 1.882 1.387 1.387 0 0 1-1.869-.62zm9.714 20.675c-.318-.7 0-1.535.708-1.846.694-.32 1.513 0 1.834.7a1.407 1.407 0 0 1-1.276 1.984c-.525 0-1.037-.31-1.266-.838zm8.963 21.054a1.414 1.414 0 0 1 .752-1.834 1.4 1.4 0 0 1 1.822.756 1.41 1.41 0 0 1-.75 1.835c-.184.07-.354.102-.537.102-.545 0-1.07-.32-1.287-.86zm7.54 22.532a1.393 1.393 0 0 1-1.356-1.433c.025-.779.66-1.388 1.424-1.364a1.397 1.397 0 0 1 1.356 1.445 1.39 1.39 0 0 1-1.39 1.352h-.033zm-1.15 22.912a1.398 1.398 0 0 1-1.299-1.491 1.4 1.4 0 0 1 1.48-1.308 1.404 1.404 0 0 1 1.3 1.492 1.398 1.398 0 0 1-1.39 1.307h-.09zm-2.005 22.842a1.382 1.382 0 0 1-1.23-1.538 1.39 1.39 0 0 1 1.527-1.25 1.408 1.408 0 0 1 1.24 1.537 1.406 1.406 0 0 1-1.389 1.262l-.148-.011zm-2.767 22.772a1.394 1.394 0 0 1-1.184-1.581 1.378 1.378 0 0 1 1.56-1.194c.764.103 1.298.804 1.196 1.572a1.4 1.4 0 0 1-1.379 1.216l-.193-.013zm-3.497 22.66a1.384 1.384 0 0 1-1.138-1.617 1.395 1.395 0 0 1 1.606-1.147c.751.125 1.264.86 1.138 1.617a1.393 1.393 0 0 1-1.367 1.17l-.239-.023zm-4.201 22.543a1.406 1.406 0 0 1-1.094-1.65c.16-.757.888-1.25 1.64-1.09a1.402 1.402 0 0 1 1.093 1.652v-.012a1.413 1.413 0 0 1-1.366 1.136l-.273-.036zm-47.791-182.59a1.337 1.337 0 0 1 .503-1.823 1.322 1.322 0 0 1 1.813.493 1.337 1.337 0 0 1-.502 1.823 1.24 1.24 0 0 1-.65.184c-.467 0-.913-.241-1.164-.676zm10.945 20.094a1.344 1.344 0 0 1 .548-1.813 1.337 1.337 0 0 1 1.805.561 1.348 1.348 0 0 1-.56 1.813 1.312 1.312 0 0 1-.617.148c-.48 0-.937-.252-1.176-.71zm10.444 20.378a1.346 1.346 0 0 1 .593-1.802 1.319 1.319 0 0 1 1.78.598 1.325 1.325 0 0 1-.58 1.788c-.195.104-.4.15-.594.15-.49 0-.96-.275-1.2-.734zm10.353 20.47a1.329 1.329 0 0 1 .57-1.8c.65-.343 1.45-.08 1.792.573.33.654.08 1.456-.571 1.8a1.31 1.31 0 0 1-.617.15 1.31 1.31 0 0 1-1.174-.723zm1.917 22.007a1.335 1.335 0 0 1 1.312-1.365c.73-.01 1.336.574 1.358 1.31a1.333 1.333 0 0 1-1.312 1.363h-.022a1.34 1.34 0 0 1-1.336-1.308zm1.312 24.245a1.339 1.339 0 0 1-1.3-1.365h-.012c.022-.734.627-1.33 1.358-1.32a1.341 1.341 0 0 1 1.312 1.367 1.335 1.335 0 0 1-1.334 1.318h-.024zm-.798 22.913a1.331 1.331 0 0 1-1.267-1.398 1.32 1.32 0 0 1 1.392-1.262c.73.034 1.3.655 1.267 1.399a1.33 1.33 0 0 1-1.325 1.273l-.067-.012zm-1.473 22.902a1.324 1.324 0 0 1-1.221-1.432 1.32 1.32 0 0 1 1.427-1.24c.73.057 1.277.7 1.22 1.434a1.332 1.332 0 0 1-1.323 1.238h-.103zm-2.089 22.844a1.314 1.314 0 0 1-1.187-1.466 1.334 1.334 0 0 1 1.462-1.192c.73.079 1.254.733 1.187 1.467-.082.687-.651 1.204-1.324 1.204l-.138-.013zm-64.864-180.558a1.27 1.27 0 0 1 .398-1.754 1.26 1.26 0 0 1 1.747.402 1.272 1.272 0 0 1-.399 1.754 1.328 1.328 0 0 1-.674.195 1.25 1.25 0 0 1-1.072-.597zm11.878 19.563a1.284 1.284 0 0 1 .434-1.754 1.279 1.279 0 0 1 1.747.447 1.278 1.278 0 0 1-.446 1.744 1.232 1.232 0 0 1-.65.183c-.434 0-.856-.229-1.085-.62zm11.549 19.768a1.29 1.29 0 0 1 .467-1.742c.604-.357 1.369-.149 1.735.459a1.289 1.289 0 0 1-.457 1.744 1.322 1.322 0 0 1-.639.171c-.444 0-.867-.23-1.106-.632zm11.582 19.805a1.278 1.278 0 0 1 .433-1.756 1.285 1.285 0 0 1 1.746.437v.011a1.278 1.278 0 0 1-1.095 1.927c-.434 0-.857-.23-1.084-.62zm7.44 20.56a1.274 1.274 0 0 1 1.118-1.41 1.27 1.27 0 0 1 1.403 1.121 1.283 1.283 0 0 1-1.118 1.412l-.149.011a1.273 1.273 0 0 1-1.255-1.135zm2.018 22.783a1.268 1.268 0 0 1 1.176-1.352 1.26 1.26 0 0 1 1.357 1.18 1.27 1.27 0 0 1-1.174 1.354l-.091.01a1.275 1.275 0 0 1-1.268-1.192zm1.233 22.866a1.28 1.28 0 0 1 1.222-1.32 1.258 1.258 0 0 1 1.311 1.215 1.268 1.268 0 0 1-1.208 1.33h-.057a1.274 1.274 0 0 1-1.268-1.225zm.582 22.898c0-.71.56-1.283 1.255-1.295a1.276 1.276 0 0 1 1.29 1.261 1.274 1.274 0 0 1-1.256 1.283h-.01a1.27 1.27 0 0 1-1.279-1.249zm1.3 24.194a1.28 1.28 0 0 1-1.254-1.283v-.012c.011-.7.582-1.26 1.278-1.26a1.27 1.27 0 0 1 1.255 1.294v-.011c0 .7-.57 1.272-1.267 1.272h-.011zm-.456 22.924a1.27 1.27 0 0 1-1.232-1.307c.024-.7.605-1.263 1.301-1.24a1.274 1.274 0 0 1-.034 2.547h-.035zM1693.76 8.23a1.205 1.205 0 0 1 .32-1.675 1.195 1.195 0 0 1 1.676.32c.378.553.23 1.308-.317 1.676a1.16 1.16 0 0 1-.675.217 1.23 1.23 0 0 1-1.004-.538zm12.63 19.092a1.218 1.218 0 0 1 .342-1.675 1.194 1.194 0 0 1 1.665.356c.366.55.206 1.307-.342 1.673a1.198 1.198 0 0 1-1.664-.353zm12.402 19.253a1.22 1.22 0 0 1 .365-1.675 1.197 1.197 0 0 1 1.666.355c.353.562.194 1.32-.367 1.674a1.109 1.109 0 0 1-.65.194c-.387 0-.775-.194-1.014-.548zm12.492 19.229a1.219 1.219 0 0 1 .342-1.686 1.195 1.195 0 0 1 1.666.344 1.21 1.21 0 0 1-.342 1.674 1.188 1.188 0 0 1-.662.208c-.387 0-.777-.196-1.004-.54zm12.402 18.633a1.197 1.197 0 0 1 .923-1.433 1.208 1.208 0 0 1 .503 2.362l-.252.035c-.558 0-1.061-.39-1.174-.964zm4.14 22.498a1.208 1.208 0 0 1 .993-1.388 1.204 1.204 0 0 1 1.38.998 1.193 1.193 0 0 1-.993 1.388l-.193.023a1.201 1.201 0 0 1-1.186-1.02zm3.251 22.67h-.01a1.213 1.213 0 0 1 1.048-1.354 1.198 1.198 0 0 1 1.347 1.044 1.213 1.213 0 0 1-1.05 1.354l-.149.01a1.197 1.197 0 0 1-1.186-1.054zm2.579 22.76h-.01a1.227 1.227 0 0 1 1.084-1.33 1.22 1.22 0 0 1 1.323 1.09h-.013c.07.653-.41 1.25-1.071 1.32l-.127.01c-.604 0-1.128-.47-1.186-1.09zm2.065 22.831a1.202 1.202 0 0 1 1.107-1.306 1.185 1.185 0 0 1 1.289 1.1h.011a1.221 1.221 0 0 1-1.106 1.306l-.103.012c-.616 0-1.152-.481-1.198-1.112zm1.678 22.853a1.204 1.204 0 0 1 1.118-1.285c.66-.045 1.232.46 1.277 1.125v.011a1.205 1.205 0 0 1-1.117 1.285h-.082a1.2 1.2 0 0 1-1.196-1.136zm-99.38-194.523a1.157 1.157 0 0 1 .262-1.604 1.132 1.132 0 0 1 1.596.252h-.01a1.149 1.149 0 0 1-.25 1.606 1.117 1.117 0 0 1-.663.216 1.17 1.17 0 0 1-.935-.47zm13.23 18.673c-.354-.516-.239-1.239.285-1.593a1.131 1.131 0 0 1 1.586.275c.365.515.24 1.226-.274 1.594-.206.15-.433.22-.662.22-.353 0-.707-.175-.935-.496zm13.082 18.8a1.148 1.148 0 0 1 .286-1.595 1.123 1.123 0 0 1 1.584.286c.366.517.24 1.229-.273 1.595a1.2 1.2 0 0 1-.661.206c-.355 0-.707-.172-.936-.492zm13.184 18.752h.012a1.158 1.158 0 0 1 .25-1.607 1.146 1.146 0 0 1 1.597.265c.365.517.252 1.24-.263 1.605a1.193 1.193 0 0 1-.66.219c-.354 0-.707-.173-.936-.482zm13.64 18.455a1.14 1.14 0 1 1 1.803-1.4 1.154 1.154 0 0 1-.205 1.605c-.217.162-.458.24-.697.24-.342 0-.684-.146-.9-.445zm9.102 20.073a1.13 1.13 0 0 1 .81-1.4 1.144 1.144 0 0 1 .581 2.212l-.296.048c-.502 0-.968-.345-1.095-.86zm5.293 22.274a1.16 1.16 0 0 1 .878-1.365 1.135 1.135 0 0 1 1.357.871 1.152 1.152 0 0 1-.868 1.365l-.25.034c-.525 0-.991-.367-1.117-.905zm4.55 22.457a1.157 1.157 0 0 1 .912-1.343 1.15 1.15 0 0 1 1.336.918 1.162 1.162 0 0 1-.913 1.342l-.205.013a1.14 1.14 0 0 1-1.13-.93zm4.026 22.572a1.139 1.139 0 0 1 .924-1.33 1.15 1.15 0 0 1 1.323.94c.103.62-.32 1.216-.936 1.32l-.193.022a1.14 1.14 0 0 1-1.118-.952zm3.65 22.63a1.15 1.15 0 0 1 .958-1.307c.617-.104 1.198.332 1.3.964a1.156 1.156 0 0 1-.947 1.306l-.182.012a1.148 1.148 0 0 1-1.128-.974zm-101.17-171.146a1.074 1.074 0 0 1 .217-1.514 1.06 1.06 0 0 1 1.503.218 1.096 1.096 0 0 1-.215 1.516 1.148 1.148 0 0 1-.65.216c-.33 0-.65-.16-.855-.436zm13.605 18.412a1.099 1.099 0 0 1 .216-1.526 1.07 1.07 0 0 1 1.504.229 1.086 1.086 0 0 1-.855 1.733c-.33 0-.66-.15-.865-.436zm13.73 18.341a1.095 1.095 0 0 1 .193-1.525 1.082 1.082 0 0 1 1.515.205 1.095 1.095 0 0 1-.855 1.746c-.33 0-.65-.15-.853-.426zm14.116 18.056a1.076 1.076 0 0 1 1.663-1.365c.376.47.308 1.146-.148 1.526-.205.159-.444.24-.683.24-.308 0-.627-.137-.832-.401zm13.559 17.803a1.081 1.081 0 0 1 .626-1.4 1.062 1.062 0 0 1 1.378.632 1.083 1.083 0 0 1-.615 1.398 1.124 1.124 0 0 1-.387.069c-.432 0-.844-.264-1.002-.7zm7.429 21.634a1.088 1.088 0 0 1 .705-1.365 1.079 1.079 0 0 1 1.345.71 1.092 1.092 0 0 1-.695 1.366 1.125 1.125 0 0 1-.33.046c-.456 0-.877-.3-1.025-.757zm6.505 21.967c-.171-.585.17-1.181.742-1.342a1.067 1.067 0 0 1 1.32.757 1.07 1.07 0 0 1-.74 1.33l-.296.047a1.07 1.07 0 0 1-1.026-.792zm5.89 22.14a1.083 1.083 0 0 1 .777-1.32 1.073 1.073 0 0 1 1.309.78 1.093 1.093 0 0 1-.774 1.32l-.275.034a1.07 1.07 0 0 1-1.037-.814zm5.516 22.263c-.149-.584.204-1.169.786-1.307a1.064 1.064 0 0 1 1.297.792c.138.584-.204 1.169-.785 1.306l-.261.037c-.48 0-.924-.333-1.037-.828zm5.297 22.323a1.092 1.092 0 0 1 .81-1.308 1.07 1.07 0 0 1 1.287.803 1.084 1.084 0 0 1-.798 1.308l-.25.024c-.479 0-.923-.334-1.049-.827zM1604.101 8.043a1.036 1.036 0 0 1 .16-1.433c.433-.357 1.07-.276 1.426.16a1.025 1.025 0 0 1-.161 1.434.991.991 0 0 1-.627.22c-.296 0-.593-.13-.798-.381zm14.063 18.056a1.025 1.025 0 0 1 .182-1.433 1.024 1.024 0 0 1 1.426.183v.012c.342.447.251 1.078-.183 1.422a.998.998 0 0 1-.615.207c-.308 0-.616-.136-.81-.39zm13.71 18.321a1.04 1.04 0 0 1 .216-1.433 1.028 1.028 0 0 1 1.426.217 1.027 1.027 0 0 1-.821 1.63c-.307 0-.615-.15-.82-.414zm13.448 18.538a1.03 1.03 0 0 1 .227-1.433 1.016 1.016 0 0 1 1.415.242 1.016 1.016 0 0 1-.228 1.421 1.027 1.027 0 0 1-.593.185.989.989 0 0 1-.821-.415zm13.23 18.69h.012a1.023 1.023 0 0 1 .239-1.436 1.005 1.005 0 0 1 1.404.253h.01c.32.46.206 1.091-.25 1.423a.977.977 0 0 1-.582.183c-.32 0-.628-.15-.833-.424zm12.365 19.134a1.019 1.019 0 0 1 .387-1.388 1.006 1.006 0 0 1 1.38.39v.01a1.016 1.016 0 0 1-.388 1.377.97.97 0 0 1-.489.128 1 1 0 0 1-.89-.517zm9.866 20.557a1.015 1.015 0 0 1 1.87-.792 1.032 1.032 0 0 1-.536 1.342c-.137.046-.263.08-.398.08-.4 0-.766-.24-.936-.63zm8.142 21.372a1.02 1.02 0 0 1 .617-1.295 1.004 1.004 0 0 1 1.289.63 1.012 1.012 0 0 1-.616 1.297 1.191 1.191 0 0 1-.33.057c-.423 0-.811-.264-.96-.689zm7.028 21.798a1.012 1.012 0 0 1 .672-1.275 1.016 1.016 0 0 1 1.267.677 1.024 1.024 0 0 1-.673 1.275l-.298.045c-.433 0-.844-.287-.968-.722zm6.364 22.037c-.148-.551.16-1.114.707-1.262.536-.15 1.096.16 1.244.71.159.541-.16 1.102-.697 1.252l-.273.045c-.446 0-.855-.299-.981-.745zm6.08 22.117a1.018 1.018 0 0 1 1.961-.54c.148.54-.17 1.102-.707 1.263l-.273.035c-.446 0-.857-.3-.982-.758zM1568.438 3.875h.01a.964.964 0 0 1 .116-1.351.947.947 0 0 1 1.332.114.965.965 0 0 1-.114 1.354.965.965 0 0 1-.615.216.981.981 0 0 1-.729-.333zm14.481 17.69a.965.965 0 0 1 .138-1.342.952.952 0 0 1 1.343.138.955.955 0 0 1-.148 1.34.903.903 0 0 1-.592.219.983.983 0 0 1-.741-.355zm14.253 17.883a.966.966 0 0 1 .16-1.34.952.952 0 0 1 1.334.158.967.967 0 0 1-.16 1.343.923.923 0 0 1-.582.207.958.958 0 0 1-.752-.368zm14.106 18.02v-.01a.958.958 0 0 1 .171-1.342.944.944 0 0 1 1.333.171.968.968 0 0 1-.159 1.343 1.06 1.06 0 0 1-.593.194.981.981 0 0 1-.752-.355zm14.072 18.045a.956.956 0 0 1 .158-1.342.955.955 0 0 1 1.334.16.966.966 0 0 1-.16 1.342.942.942 0 0 1-1.332-.16zm14.058 18.02a.959.959 0 0 1 .194-1.34.96.96 0 0 1 1.333.204.956.956 0 0 1-.204 1.33.953.953 0 0 1-.56.196.936.936 0 0 1-.763-.39zm12.168 19.236h-.01a.971.971 0 0 1 .375-1.306.947.947 0 0 1 1.288.365.974.974 0 0 1-.365 1.309.97.97 0 0 1-.455.114.94.94 0 0 1-.833-.482zm10.22 20.405a.953.953 0 1 1 1.265.47.965.965 0 0 1-.398.093.955.955 0 0 1-.866-.563zm9.002 21.037a.955.955 0 0 1 .523-1.25.952.952 0 0 1 1.231.527.95.95 0 0 1-.876 1.319.95.95 0 0 1-.878-.596zm8.237 21.368a.958.958 0 0 1 .559-1.227.932.932 0 0 1 1.22.55.946.946 0 0 1-.56 1.226.798.798 0 0 1-.33.07.957.957 0 0 1-.889-.62zm7.874 21.528c-.183-.503.068-1.054.558-1.225a.942.942 0 0 1 1.219.572.936.936 0 0 1-.57 1.215l-.318.059a.944.944 0 0 1-.889-.62zM1546.67 16.35a.894.894 0 0 1 .103-1.261.882.882 0 0 1 1.254.103.918.918 0 0 1-.103 1.262.925.925 0 0 1-.58.205.868.868 0 0 1-.673-.31zm14.692 17.53a.87.87 0 0 1 .114-1.249.87.87 0 0 1 1.243.102.919.919 0 0 1-.104 1.262.917.917 0 0 1-.58.206.845.845 0 0 1-.673-.32zm14.645 17.588a.88.88 0 0 1 .104-1.25.893.893 0 0 1 1.253.103.909.909 0 0 1-.114 1.262.871.871 0 0 1-.569.206.845.845 0 0 1-.674-.321zm14.703 17.543a.882.882 0 0 1 .103-1.25.87.87 0 0 1 1.243.104.883.883 0 0 1-.103 1.249.826.826 0 0 1-.57.217c-.25 0-.5-.114-.673-.32zm14.898 17.381a.907.907 0 0 1 .079-1.261.884.884 0 0 1 1.255.09.892.892 0 0 1-.08 1.25.89.89 0 0 1-.582.23.889.889 0 0 1-.672-.309zm14.371 17.68a.901.901 0 0 1 .207-1.251.888.888 0 0 1 1.241.207.9.9 0 0 1-.206 1.25.9.9 0 0 1-1.242-.206zm12.276 19.227a.881.881 0 0 1 .307-1.215.887.887 0 0 1 1.22.32.898.898 0 0 1-.764 1.342.868.868 0 0 1-.763-.447zm10.862 20.122v-.012a.895.895 0 0 1 .387-1.193c.434-.229.97-.046 1.198.39a.894.894 0 0 1-.388 1.192.872.872 0 0 1-.41.104.901.901 0 0 1-.787-.481zm10.006 20.568a.877.877 0 0 1 .422-1.18.867.867 0 0 1 1.174.423.88.88 0 0 1-.42 1.182.913.913 0 0 1-.377.092.885.885 0 0 1-.799-.517zm9.529 20.844a.898.898 0 0 1 .444-1.181.896.896 0 0 1 1.175.449.906.906 0 0 1-.445 1.18.882.882 0 0 1-1.174-.448zm9.38 20.925a.885.885 0 0 1 .445-1.182.885.885 0 0 1 1.173.448h-.011a.891.891 0 0 1-.433 1.181 1.035 1.035 0 0 1-.365.068.872.872 0 0 1-.81-.515zM1509.894 11.14h-.01a.834.834 0 0 1 .08-1.168.823.823 0 0 1 1.162.08.836.836 0 0 1-.08 1.169.789.789 0 0 1-.536.207.789.789 0 0 1-.616-.288zm15.022 17.258a.837.837 0 0 1 .079-1.17.825.825 0 0 1 1.162.08.838.838 0 0 1-.079 1.171.821.821 0 0 1-.536.195.834.834 0 0 1-.626-.276zm15.055 17.235a.835.835 0 0 1 .068-1.17.834.834 0 0 1 1.163.069v.011a.809.809 0 0 1-.069 1.157.793.793 0 0 1-.547.22.823.823 0 0 1-.615-.287zm15.18 17.13a.835.835 0 0 1 .068-1.169.815.815 0 0 1 1.164.057.835.835 0 0 1-.07 1.17.77.77 0 0 1-.546.218.826.826 0 0 1-.615-.276zm15.454 16.892a.837.837 0 0 1 .034-1.17.823.823 0 0 1 1.163.034c.32.333.308.86-.034 1.169a.81.81 0 0 1-.559.23.841.841 0 0 1-.604-.263zm15.785 16.546a.84.84 0 0 1 .056-1.182.835.835 0 0 1 1.163.058.834.834 0 0 1-.616 1.389.832.832 0 0 1-.603-.265zm14.258 17.762a.83.83 0 0 1 1.344-.975.833.833 0 0 1-.193 1.159.8.8 0 0 1-.48.16.853.853 0 0 1-.671-.344zm12.662 19.022v-.01a.825.825 0 0 1 .262-1.136.812.812 0 0 1 1.127.264.813.813 0 0 1-.262 1.134.756.756 0 0 1-.433.128.793.793 0 0 1-.694-.38zm11.647 19.678a.82.82 0 0 1 .307-1.123.82.82 0 0 1 1.129.309.84.84 0 0 1-.307 1.123.759.759 0 0 1-.41.116.825.825 0 0 1-.719-.425zm11.067 20.043a.823.823 0 1 1 1.447-.79.83.83 0 0 1-.332 1.122.771.771 0 0 1-.387.104.825.825 0 0 1-.728-.436zm10.802 20.216a.847.847 0 0 1 .344-1.123.816.816 0 0 1 1.116.343v-.01c.204.4.056.906-.342 1.123a.82.82 0 0 1-.387.104.83.83 0 0 1-.73-.437zM1472.824 5.967a.775.775 0 0 1 .059-1.077.765.765 0 0 1 1.025 1.135.741.741 0 0 1-.513.196.766.766 0 0 1-.57-.254zm15.312 17.036l-.012-.013a.775.775 0 0 1 .057-1.078.764.764 0 0 1 1.025 1.136.737.737 0 0 1-.512.195.757.757 0 0 1-.558-.24zm15.366 16.953a.767.767 0 0 1 .045-1.078.756.756 0 0 1 1.073.046.767.767 0 0 1-.045 1.078.754.754 0 0 1-.515.207.729.729 0 0 1-.558-.253zm15.55 16.804a.775.775 0 0 1 .022-1.077.768.768 0 0 1 1.084.034.766.766 0 0 1-.034 1.08.752.752 0 0 1-1.072-.037zm15.858 16.52a.755.755 0 0 1 .01-1.079.755.755 0 0 1 1.072 0v.012a.755.755 0 0 1-.011 1.078.742.742 0 0 1-.524.217.767.767 0 0 1-.547-.227zm16.313 16.07h.01a.767.767 0 0 1-.033-1.079.755.755 0 0 1 1.072-.032.763.763 0 1 1-1.049 1.112zm16.142 16.106a.768.768 0 0 1 .057-1.079.765.765 0 0 1 1.072.058.754.754 0 0 1-.057 1.078.732.732 0 0 1-.502.195.736.736 0 0 1-.57-.252zm14.387 17.722a.77.77 0 0 1 .148-1.068.77.77 0 0 1 1.071.15.768.768 0 0 1-.615 1.228.74.74 0 0 1-.604-.31zm13.224 18.663a.765.765 0 0 1 .205-1.067.76.76 0 0 1 1.049.207c.24.344.149.826-.194 1.066a.76.76 0 0 1-.434.127.754.754 0 0 1-.626-.333zm12.505 19.168a.762.762 0 0 1 .24-1.055.75.75 0 0 1 1.049.242.776.776 0 0 1-.24 1.054.724.724 0 0 1-.398.116.776.776 0 0 1-.651-.357zm12.142 19.443a.762.762 0 0 1 .24-1.055.76.76 0 0 1 1.048.252v-.01a.766.766 0 0 1-.65 1.17.74.74 0 0 1-.638-.357zm12.027 19.513a.753.753 0 0 1 .24-1.055.757.757 0 0 1 1.048.241.767.767 0 0 1-.65 1.17.743.743 0 0 1-.638-.356zm-196.46-198.5a.71.71 0 0 1 .032-.999.701.701 0 0 1 .992.047.707.707 0 0 1-.045.986.675.675 0 0 1-.466.183.677.677 0 0 1-.513-.218zm15.497 16.818a.7.7 0 0 1 1.026-.953.707.707 0 0 1-.513 1.182.693.693 0 0 1-.513-.229zm15.6 16.737a.708.708 0 0 1 .034-.996.686.686 0 0 1 .98.033.707.707 0 0 1-.022.986.71.71 0 0 1-.478.195.747.747 0 0 1-.514-.218zm15.817 16.543v-.01a.707.707 0 0 1 .012-.988.696.696 0 0 1 .98.012.697.697 0 0 1-.49 1.192.705.705 0 0 1-.502-.206zm16.148 16.21v.012a.71.71 0 0 1-.012-.998.684.684 0 0 1 .98-.011c.274.264.284.71.012.985a.668.668 0 0 1-.49.219.677.677 0 0 1-.49-.207zm16.603 15.753a.71.71 0 0 1-.046-.998.686.686 0 0 1 .98-.046c.297.265.308.7.057.987a.672.672 0 0 1-.525.227.742.742 0 0 1-.466-.17zm17.185 15.087a.7.7 0 0 1-.058-.998.695.695 0 0 1 .98-.057c.285.252.32.699.056.986a.686.686 0 0 1-.978.069zm16.089 16.129a.696.696 0 0 1 .045-.985.686.686 0 0 1 .98.046.694.694 0 0 1-.045.984.685.685 0 0 1-.98-.045zm14.711 17.46a.7.7 0 1 1 1.095-.87.71.71 0 0 1-.114.985.701.701 0 0 1-.98-.115zm13.87 18.183a.7.7 0 0 1 .136-.975.695.695 0 0 1 .98.15.7.7 0 0 1-.558 1.112.666.666 0 0 1-.559-.287zm13.355 18.571a.686.686 0 0 1 .16-.974.68.68 0 0 1 .967.16.702.702 0 0 1-.158.975.667.667 0 0 1-.41.126.676.676 0 0 1-.559-.287zm13.138 18.757a.7.7 0 0 1 .172-.975.68.68 0 0 1 .968.171.695.695 0 0 1-.57 1.101.699.699 0 0 1-.57-.297zm13.163 18.743a.698.698 0 0 1 .159-.974c.32-.23.752-.15.969.16.227.31.16.757-.16.976a.68.68 0 0 1-.399.137.694.694 0 0 1-.569-.3zM1414.052 12.743a.64.64 0 0 1 .022-.896.62.62 0 0 1 .902.025c.239.25.228.652-.023.892a.651.651 0 0 1-.433.174.664.664 0 0 1-.468-.195zm15.787 16.575a.65.65 0 0 1 .012-.907.63.63 0 0 1 .9.023c.24.241.24.653-.011.895a.67.67 0 0 1-.445.184.663.663 0 0 1-.456-.195zm16.015 16.357a.64.64 0 0 1 0-.907c.252-.24.65-.24.9 0 .24.253.24.653 0 .907a.62.62 0 0 1-.454.184.616.616 0 0 1-.446-.184zm16.358 16.012a.627.627 0 0 1-.023-.895.608.608 0 0 1 .888-.022c.25.241.263.643.024.895a.613.613 0 0 1-.456.194.606.606 0 0 1-.433-.172zm16.812 15.531a.638.638 0 0 1-.057-.895.643.643 0 0 1 .902-.057.63.63 0 0 1 .045.896.606.606 0 0 1-.467.216.572.572 0 0 1-.423-.16zm17.418 14.855a.652.652 0 0 1-.09-.905.638.638 0 0 1 .887-.094c.274.22.32.621.09.896a.618.618 0 0 1-.49.24.64.64 0 0 1-.397-.137zm17.61 14.51v.012a.641.641 0 0 1-.046-.906.618.618 0 0 1 .89-.046.639.639 0 0 1-.422 1.112.601.601 0 0 1-.422-.173zm16.187 16.092a.649.649 0 0 1 .023-.905.63.63 0 0 1 .9.035.638.638 0 0 1-.023.895.65.65 0 0 1-.9-.025zm15.171 17.105a.654.654 0 0 1 .068-.908.63.63 0 0 1 .89.069.651.651 0 0 1-.07.906.6.6 0 0 1-.408.15.606.606 0 0 1-.48-.217zm14.545 17.664a.628.628 0 0 1 .09-.895.62.62 0 0 1 .89.092.64.64 0 0 1-.09.894.644.644 0 0 1-.89-.091zm14.192 17.939a.638.638 0 0 1 .101-.894.633.633 0 0 1 .89.114.641.641 0 0 1-.104.895.619.619 0 0 1-.887-.115zm14.1 18.078a.64.64 0 0 1 .101-.895.63.63 0 0 1 .889.104.64.64 0 0 1-.102.894.677.677 0 0 1-.399.138.655.655 0 0 1-.49-.24zM1375.877 7.658a.578.578 0 0 1 .012-.813.57.57 0 0 1 .81.01.591.591 0 0 1-.012.814.573.573 0 0 1-.81-.012zm15.923 16.425a.556.556 0 0 1 0-.803c.217-.23.58-.23.81 0a.582.582 0 0 1-.011.815.547.547 0 0 1-.4.158.533.533 0 0 1-.399-.17zm16.14 16.207a.565.565 0 0 1 0-.803c.215-.23.58-.23.798-.011a.582.582 0 0 1 .01.814.567.567 0 0 1-.41.16.555.555 0 0 1-.399-.16zm16.492 15.863v.01a.591.591 0 0 1-.035-.813.562.562 0 0 1 .809-.034.592.592 0 0 1 .034.814.612.612 0 0 1-.421.182.581.581 0 0 1-.387-.159zm16.935 15.38a.58.58 0 0 1-.056-.813.563.563 0 0 1 .81-.045.568.568 0 0 1-.377.997.593.593 0 0 1-.377-.138zm17.519 14.717a.584.584 0 0 1-.091-.814.573.573 0 0 1 .798-.09.58.58 0 1 1-.353 1.032.57.57 0 0 1-.354-.128zm18.224 13.813a.575.575 0 0 1-.135-.803.575.575 0 0 1 .796-.126c.263.183.32.538.137.803a.61.61 0 0 1-.467.24.511.511 0 0 1-.331-.114zm17.643 14.406a.565.565 0 0 1-.033-.802.55.55 0 0 1 .797-.046c.24.208.25.573.046.803a.567.567 0 0 1-.81.045zm16.447 15.84a.574.574 0 0 1 0-.8.561.561 0 0 1 .81 0 .579.579 0 0 1 0 .812.609.609 0 0 1-.4.16.575.575 0 0 1-.41-.172zm15.672 16.644a.582.582 0 0 1 .034-.815.573.573 0 0 1 .81.035.59.59 0 0 1-.036.814.563.563 0 0 1-.387.149.552.552 0 0 1-.42-.183zm15.204 17.077a.567.567 0 0 1 .057-.802.55.55 0 0 1 .798.047.591.591 0 0 1-.046.812.608.608 0 0 1-.375.138.585.585 0 0 1-.434-.195zm14.977 17.297a.575.575 0 1 1 .866-.757.593.593 0 0 1-.057.814.583.583 0 0 1-.81-.057zm14.964 17.34a.583.583 0 0 1 .057-.813.561.561 0 0 1 .798.058.58.58 0 0 1-.057.813.555.555 0 0 1-.365.137.585.585 0 0 1-.433-.195zM7.253 167.978a1.726 1.726 0 0 0 .606-2.352 1.7 1.7 0 0 0-2.343-.608 1.717 1.717 0 0 0 .87 3.2c.296 0 .593-.081.867-.24zM19.31 187.453a1.713 1.713 0 0 0 .514-2.375 1.72 1.72 0 0 0-2.375-.515 1.737 1.737 0 0 0-.502 2.384c.331.506.878.78 1.439.78.32 0 .639-.08.924-.274zM32.11 206.457c.777-.55.971-1.629.422-2.408a1.715 1.715 0 0 0-2.387-.426 1.733 1.733 0 0 0-.421 2.398c.342.481.867.735 1.404.735.342 0 .686-.091.982-.3zM6.493 127.752a1.651 1.651 0 1 0-1.188-3.082 1.67 1.67 0 0 0-.948 2.142c.263.653.881 1.056 1.543 1.056.205 0 .4-.035.593-.116zM15.457 148.836a1.64 1.64 0 0 0 .811-2.19h.012a1.652 1.652 0 0 0-2.192-.826 1.659 1.659 0 0 0-.81 2.19v.012c.273.606.867.963 1.495.963.228 0 .467-.045.684-.149zM25.553 169.391a1.646 1.646 0 0 0 .696-2.224 1.648 1.648 0 0 0-2.227-.711 1.666 1.666 0 0 0-.696 2.237c.297.56.867.881 1.46.881.264 0 .527-.056.767-.183zM36.607 189.443a1.642 1.642 0 0 0 .594-2.259 1.64 1.64 0 0 0-2.25-.608 1.668 1.668 0 0 0-.605 2.26c.309.538.87.824 1.44.824.273 0 .56-.069.821-.217zM48.45 209.035a1.673 1.673 0 0 0 .525-2.293c-.492-.767-1.507-1.009-2.272-.515a1.658 1.658 0 0 0 .88 3.061c.296 0 .593-.08.868-.253zM27.644 11.053a1.613 1.613 0 0 0-.922-2.065c-.807-.31-1.718.105-2.036.93-.308.814.1 1.743.91 2.052a1.586 1.586 0 0 0 2.049-.917zM21.202 32.786a1.603 1.603 0 0 0-1.205-1.902 1.586 1.586 0 0 0-1.877 1.215 1.598 1.598 0 0 0 1.206 1.904 1.581 1.581 0 0 0 1.876-1.217zM18.165 55.234a1.595 1.595 0 0 0-1.502-1.675 1.592 1.592 0 0 0-1.661 1.514 1.6 1.6 0 0 0 1.49 1.675h.092c.83 0 1.535-.665 1.58-1.514zM17.677 79.63a1.579 1.579 0 0 0 1.377-1.766c-.103-.872-.889-1.504-1.753-1.387a1.577 1.577 0 0 0-1.377 1.765c.09.815.774 1.41 1.56 1.41l.193-.021zM21.523 102.237a1.587 1.587 0 0 0 1.217-1.882 1.577 1.577 0 0 0-1.867-1.239 1.597 1.597 0 0 0-1.216 1.894 1.574 1.574 0 0 0 1.546 1.261l.32-.034zM27.2 124.441a1.59 1.59 0 0 0 1.069-1.973 1.569 1.569 0 0 0-1.957-1.077 1.576 1.576 0 0 0-1.07 1.973h-.012a1.594 1.594 0 0 0 1.527 1.146c.148 0 .295-.022.443-.069zM34.483 146.166c.807-.299 1.227-1.217.92-2.042a1.566 1.566 0 0 0-2.026-.942 1.597 1.597 0 0 0-.931 2.042c.238.643.84 1.044 1.478 1.044.182 0 .375-.033.559-.102zM43.106 167.385a1.595 1.595 0 0 0 .82-2.099 1.576 1.576 0 0 0-2.083-.815 1.609 1.609 0 0 0-.818 2.099c.26.596.84.953 1.455.953.205 0 .421-.046.626-.138zM52.845 188.11a1.6 1.6 0 0 0 .717-2.133 1.583 1.583 0 0 0-2.128-.722 1.603 1.603 0 0 0-.705 2.133v.011c.274.561.842.883 1.421.883.23 0 .478-.057.695-.171zM63.45 208.4a1.604 1.604 0 0 0 .625-2.167 1.566 1.566 0 0 0-2.139-.632 1.608 1.608 0 0 0-.627 2.168 1.57 1.57 0 0 0 2.14.631zM61.748 6.623a1.552 1.552 0 0 0-.72-2.04 1.527 1.527 0 0 0-1.307 2.762c.204.105.431.15.65.15.567 0 1.114-.32 1.377-.872zM53.268 27.69c.26-.8-.16-1.66-.956-1.936a1.516 1.516 0 0 0-1.923.963c-.262.803.158 1.674.956 1.938.16.057.317.08.477.08.638 0 1.23-.402 1.446-1.044zM47.497 49.641a1.524 1.524 0 0 0-1.206-1.787 1.532 1.532 0 0 0-1.776 1.215 1.543 1.543 0 0 0 1.208 1.789l.284.032c.716 0 1.353-.515 1.49-1.249zM45.04 72.153a1.537 1.537 0 0 0-1.49-1.56c-.832-.021-1.526.654-1.55 1.504a1.537 1.537 0 0 0 1.492 1.557h.022a1.53 1.53 0 0 0 1.526-1.501zM44.63 96.534a1.524 1.524 0 0 0 1.364-1.662 1.51 1.51 0 0 0-1.648-1.376 1.518 1.518 0 0 0-1.367 1.662 1.513 1.513 0 0 0 1.503 1.387l.148-.01zM48.045 119.194c.818-.161 1.353-.963 1.205-1.8a1.52 1.52 0 0 0-1.788-1.203 1.524 1.524 0 0 0-1.193 1.788 1.514 1.514 0 0 0 1.49 1.238l.286-.023zM53.392 141.466a1.542 1.542 0 0 0 1.06-1.891 1.505 1.505 0 0 0-1.868-1.057 1.524 1.524 0 0 0 .41 2.993c.126 0 .263-.012.398-.045zM60.335 163.29c.797-.288 1.22-1.16.933-1.949a1.512 1.512 0 0 0-1.934-.94 1.528 1.528 0 0 0-.923 1.949h-.01c.227.63.807 1.019 1.445 1.019.159 0 .33-.023.49-.08zM68.542 184.665a1.529 1.529 0 0 0 .819-1.994 1.515 1.515 0 0 0-1.982-.825 1.53 1.53 0 0 0-.819 1.995c.24.584.798.94 1.401.94.193 0 .388-.034.581-.116zM77.669 205.664a1.533 1.533 0 0 0 .75-2.029 1.51 1.51 0 0 0-2.014-.745 1.516 1.516 0 0 0-.739 2.018c.25.561.808.894 1.376.894.218 0 .423-.046.627-.138zM98.607 4.999a1.468 1.468 0 0 0-.626-1.972 1.458 1.458 0 0 0-1.96.63c-.363.722-.09 1.605.626 1.972.217.114.445.16.66.16.536 0 1.05-.286 1.3-.79zM89.054 25.688a1.469 1.469 0 0 0-.775-1.915 1.452 1.452 0 0 0-1.913.768 1.484 1.484 0 0 0 .773 1.927c.194.08.388.113.57.113a1.46 1.46 0 0 0 1.345-.893zM80.901 46.996a1.449 1.449 0 0 0-.889-1.857 1.44 1.44 0 0 0-1.856.894 1.47 1.47 0 0 0 .888 1.868 1.454 1.454 0 0 0 1.857-.905zM73.91 68.751h-.012c.239-.767-.205-1.581-.979-1.821a1.443 1.443 0 0 0-1.8.986 1.46 1.46 0 0 0 .969 1.821c.148.046.284.058.42.058a1.46 1.46 0 0 0 1.402-1.044zM71.586 92.296a1.466 1.466 0 0 0 1.287-1.618 1.458 1.458 0 0 0-1.606-1.294 1.467 1.467 0 1 0 .16 2.922l.159-.01zM74.603 115.013a1.464 1.464 0 0 0 1.23-1.662 1.457 1.457 0 1 0-2.882.436c.116.722.73 1.25 1.447 1.25l.205-.024zM78.486 137.605a1.456 1.456 0 0 0 1.16-1.708 1.45 1.45 0 0 0-1.694-1.17c-.797.151-1.311.918-1.163 1.709.127.71.74 1.193 1.424 1.193l.273-.024zM83.188 160.036a1.458 1.458 0 0 0 1.094-1.753 1.449 1.449 0 0 0-1.741-1.1 1.455 1.455 0 0 0-1.094 1.754 1.45 1.45 0 0 0 1.741 1.1zM88.677 182.284a1.467 1.467 0 0 0 1.037-1.787 1.447 1.447 0 0 0-1.776-1.042 1.458 1.458 0 0 0-1.037 1.787 1.46 1.46 0 0 0 1.776 1.042zM94.94 204.328a1.469 1.469 0 0 0 .978-1.823h-.01a1.435 1.435 0 0 0-1.81-.975 1.457 1.457 0 0 0-.968 1.822 1.457 1.457 0 0 0 1.39 1.044c.135 0 .283-.022.42-.068zM123.171 21.251a1.425 1.425 0 0 0-.616-1.892 1.394 1.394 0 0 0-1.868.631 1.401 1.401 0 0 0 .615 1.882 1.387 1.387 0 0 0 1.869-.62zM113.456 41.926c.318-.7 0-1.535-.708-1.846-.694-.32-1.513 0-1.834.7a1.407 1.407 0 0 0 1.276 1.984c.525 0 1.037-.31 1.266-.838zM104.494 62.98a1.414 1.414 0 0 0-.753-1.834 1.4 1.4 0 0 0-1.82.756 1.41 1.41 0 0 0 .75 1.835c.182.07.353.102.535.102.546 0 1.071-.32 1.288-.86zM96.953 85.512a1.393 1.393 0 0 0 1.356-1.433 1.393 1.393 0 0 0-1.424-1.364 1.397 1.397 0 0 0-1.356 1.445 1.39 1.39 0 0 0 1.39 1.352h.034zM98.102 108.424a1.398 1.398 0 0 0 1.3-1.491 1.4 1.4 0 0 0-1.48-1.308 1.404 1.404 0 0 0-1.3 1.492c.057.744.661 1.307 1.39 1.307h.09zM100.108 131.266a1.382 1.382 0 0 0 1.23-1.538 1.39 1.39 0 0 0-1.527-1.25 1.408 1.408 0 0 0-1.24 1.537c.08.724.683 1.262 1.39 1.262l.147-.011zM102.875 154.038a1.394 1.394 0 0 0 1.184-1.581 1.378 1.378 0 0 0-1.56-1.194c-.764.103-1.298.804-1.196 1.572a1.4 1.4 0 0 0 1.378 1.216l.194-.013zM106.372 176.698a1.384 1.384 0 0 0 1.138-1.617 1.395 1.395 0 0 0-1.606-1.147c-.751.125-1.264.86-1.138 1.617.114.688.706 1.17 1.367 1.17l.239-.023zM110.574 199.24a1.406 1.406 0 0 0 1.094-1.65c-.16-.756-.888-1.25-1.64-1.088a1.402 1.402 0 0 0-1.094 1.651v-.012a1.413 1.413 0 0 0 1.367 1.136l.273-.036zM158.365 16.652a1.337 1.337 0 0 0-.503-1.824 1.322 1.322 0 0 0-1.814.493 1.337 1.337 0 0 0 .502 1.823c.206.127.435.184.65.184.468 0 .914-.241 1.165-.676zM147.42 36.745a1.344 1.344 0 0 0-.55-1.813 1.337 1.337 0 0 0-1.803.561 1.348 1.348 0 0 0 .56 1.813c.194.104.411.148.617.148.478 0 .936-.252 1.176-.71zM136.976 57.123a1.346 1.346 0 0 0-.593-1.802 1.319 1.319 0 0 0-1.781.598 1.325 1.325 0 0 0 .581 1.788c.194.104.4.15.594.15.49 0 .96-.275 1.199-.734zM126.623 77.593a1.329 1.329 0 0 0-.571-1.8 1.325 1.325 0 0 0-1.792.573c-.33.654-.08 1.456.571 1.8.194.104.41.15.617.15.48 0 .947-.264 1.175-.723zM124.705 99.6a1.335 1.335 0 0 0-1.312-1.365 1.346 1.346 0 0 0-1.358 1.31 1.333 1.333 0 0 0 1.312 1.363h.022a1.34 1.34 0 0 0 1.336-1.308zm-1.312 24.245a1.339 1.339 0 0 0 1.3-1.365h.012c-.022-.734-.627-1.33-1.358-1.32a1.341 1.341 0 0 0-1.312 1.367 1.335 1.335 0 0 0 1.334 1.318h.024zM124.192 146.758a1.331 1.331 0 0 0 1.267-1.398 1.32 1.32 0 0 0-1.392-1.262c-.73.034-1.3.655-1.267 1.399a1.33 1.33 0 0 0 1.324 1.273l.068-.012zM125.665 169.66a1.324 1.324 0 0 0 1.22-1.432 1.32 1.32 0 0 0-1.426-1.24 1.334 1.334 0 0 0-1.22 1.434c.056.71.638 1.238 1.323 1.238h.103zM127.753 192.504a1.314 1.314 0 0 0 1.188-1.466 1.334 1.334 0 0 0-1.462-1.192c-.73.079-1.255.733-1.188 1.467.082.687.652 1.204 1.324 1.204l.138-.013zM192.617 11.946a1.27 1.27 0 0 0-.398-1.754 1.26 1.26 0 0 0-1.746.402 1.272 1.272 0 0 0 .398 1.754c.206.125.446.195.674.195a1.25 1.25 0 0 0 1.072-.597zM180.74 31.51a1.284 1.284 0 0 0-.434-1.755 1.279 1.279 0 0 0-1.748.447 1.278 1.278 0 0 0 .446 1.744c.206.124.424.183.65.183.435 0 .856-.229 1.085-.62zM169.19 51.277a1.29 1.29 0 0 0-.467-1.742c-.604-.357-1.369-.149-1.735.459a1.289 1.289 0 0 0 .457 1.744 1.284 1.284 0 0 0 1.745-.46zM157.609 71.082a1.278 1.278 0 0 0-.434-1.756 1.285 1.285 0 0 0-1.746.437v.011a1.278 1.278 0 0 0 1.095 1.927c.434 0 .857-.23 1.085-.62zM150.17 91.641a1.274 1.274 0 0 0-1.119-1.41 1.27 1.27 0 0 0-1.403 1.122 1.283 1.283 0 0 0 1.118 1.412l.148.011c.639 0 1.186-.493 1.255-1.135zM148.15 114.425a1.268 1.268 0 0 0-1.175-1.352 1.26 1.26 0 0 0-1.357 1.18 1.27 1.27 0 0 0 1.174 1.354l.091.01c.662 0 1.222-.515 1.268-1.192zM146.918 137.29a1.28 1.28 0 0 0-1.223-1.32 1.258 1.258 0 0 0-1.31 1.216 1.268 1.268 0 0 0 1.208 1.33h.057c.673 0 1.243-.538 1.268-1.225zM146.335 160.19c0-.711-.56-1.284-1.255-1.296a1.276 1.276 0 0 0-1.29 1.261 1.274 1.274 0 0 0 1.256 1.283h.01a1.27 1.27 0 0 0 1.279-1.249zM145.035 184.383a1.28 1.28 0 0 0 1.255-1.283v-.012a1.282 1.282 0 0 0-1.278-1.26 1.27 1.27 0 0 0-1.255 1.294v-.011c0 .7.57 1.272 1.266 1.272h.012zM145.49 207.307a1.27 1.27 0 0 0 1.234-1.307c-.025-.7-.606-1.263-1.302-1.24a1.274 1.274 0 0 0 .034 2.547h.035zM228.241 8.23a1.205 1.205 0 0 0-.32-1.675 1.195 1.195 0 0 0-1.676.32 1.204 1.204 0 0 0 .318 1.676c.206.148.445.217.674.217a1.23 1.23 0 0 0 1.004-.538zM215.61 27.322a1.218 1.218 0 0 0-.341-1.675 1.194 1.194 0 0 0-1.665.356 1.216 1.216 0 0 0 .342 1.673c.205.127.433.194.661.194.389 0 .776-.194 1.004-.548zM203.209 46.575a1.22 1.22 0 0 0-.366-1.675 1.197 1.197 0 0 0-1.665.355c-.354.562-.194 1.32.366 1.674.194.137.422.194.65.194.388 0 .776-.194 1.015-.548zM190.716 65.804a1.219 1.219 0 0 0-.342-1.686 1.195 1.195 0 0 0-1.665.344 1.21 1.21 0 0 0 .342 1.674c.205.138.434.208.662.208.387 0 .777-.196 1.003-.54zM178.315 84.437a1.197 1.197 0 0 0-.923-1.433 1.208 1.208 0 0 0-.503 2.362l.252.035c.558 0 1.06-.39 1.174-.964zM174.174 106.935a1.208 1.208 0 0 0-.993-1.388 1.204 1.204 0 0 0-1.38.998c-.115.665.33 1.284.993 1.388l.194.023c.582 0 1.094-.424 1.186-1.02zM170.923 129.605h.01a1.213 1.213 0 0 0-1.047-1.354 1.198 1.198 0 0 0-1.347 1.044 1.213 1.213 0 0 0 1.05 1.354l.148.01c.592 0 1.117-.446 1.186-1.054zM168.345 152.365h.01a1.227 1.227 0 0 0-1.084-1.33 1.22 1.22 0 0 0-1.324 1.09h.013c-.069.653.41 1.25 1.072 1.32l.127.01c.603 0 1.127-.47 1.186-1.09zM166.28 175.196a1.202 1.202 0 0 0-1.108-1.306 1.185 1.185 0 0 0-1.288 1.1h-.012a1.221 1.221 0 0 0 1.106 1.306l.103.012c.616 0 1.152-.481 1.199-1.112zM164.602 198.049a1.204 1.204 0 0 0-1.119-1.285 1.203 1.203 0 0 0-1.276 1.125v.011a1.205 1.205 0 0 0 1.117 1.285h.081a1.2 1.2 0 0 0 1.197-1.136zM263.982 3.526a1.157 1.157 0 0 0-.263-1.604 1.132 1.132 0 0 0-1.596.252h.01a1.149 1.149 0 0 0 .251 1.606c.206.148.433.216.662.216.365 0 .708-.17.936-.47zM250.75 22.2c.355-.517.24-1.24-.284-1.594a1.131 1.131 0 0 0-1.586.275 1.146 1.146 0 0 0 .274 1.594c.206.15.433.22.662.22.354 0 .707-.175.935-.496zM237.669 40.999a1.148 1.148 0 0 0-.286-1.595 1.123 1.123 0 0 0-1.585.286 1.147 1.147 0 0 0 .273 1.595 1.2 1.2 0 0 0 .662.206c.354 0 .707-.172.936-.492zM224.486 59.75h-.012a1.158 1.158 0 0 0-.25-1.606 1.146 1.146 0 0 0-1.597.265 1.156 1.156 0 0 0 .263 1.605c.204.138.432.219.66.219.354 0 .707-.173.936-.482zM210.845 78.206a1.14 1.14 0 1 0-1.803-1.4 1.154 1.154 0 0 0 .206 1.605c.217.162.457.24.696.24.342 0 .684-.146.901-.445zM201.744 98.279a1.13 1.13 0 0 0-.811-1.4 1.144 1.144 0 0 0-.581 2.212l.296.048c.503 0 .969-.345 1.096-.86zM196.451 120.553a1.16 1.16 0 0 0-.878-1.365 1.135 1.135 0 0 0-1.357.871c-.137.62.262 1.228.868 1.365l.25.034c.525 0 .991-.367 1.117-.905zM191.9 143.01a1.157 1.157 0 0 0-.91-1.343 1.15 1.15 0 0 0-1.336.918c-.114.62.296 1.216.912 1.342l.205.013a1.14 1.14 0 0 0 1.13-.93zM187.874 165.582a1.139 1.139 0 0 0-.924-1.33 1.15 1.15 0 0 0-1.324.94c-.102.62.32 1.216.936 1.32l.194.022a1.14 1.14 0 0 0 1.118-.952zM184.223 188.213a1.15 1.15 0 0 0-.957-1.308c-.617-.104-1.198.332-1.3.964a1.156 1.156 0 0 0 .947 1.306l.182.012c.547 0 1.038-.401 1.128-.974zM285.395 17.066a1.074 1.074 0 0 0-.217-1.514 1.06 1.06 0 0 0-1.504.218 1.096 1.096 0 0 0 .216 1.516c.193.135.422.216.65.216.33 0 .65-.16.855-.436zM271.79 35.478a1.099 1.099 0 0 0-.217-1.526 1.07 1.07 0 0 0-1.503.229 1.086 1.086 0 0 0 .854 1.733c.33 0 .661-.15.865-.436zM258.06 53.819a1.095 1.095 0 0 0-.194-1.525 1.082 1.082 0 0 0-1.516.205 1.095 1.095 0 0 0 .856 1.746c.33 0 .65-.15.853-.426zM243.943 71.875a1.076 1.076 0 0 0-1.663-1.365 1.094 1.094 0 0 0 .148 1.526c.205.159.444.24.683.24.308 0 .627-.137.832-.401zM230.384 89.678a1.081 1.081 0 0 0-.626-1.4 1.062 1.062 0 0 0-1.378.632c-.218.561.067 1.18.615 1.398.124.047.26.069.387.069.432 0 .843-.264 1.002-.7zM222.955 111.312a1.088 1.088 0 0 0-.705-1.365 1.079 1.079 0 0 0-1.345.71 1.092 1.092 0 0 0 .695 1.366c.115.034.218.046.33.046.456 0 .877-.3 1.025-.757zM216.45 133.279a1.077 1.077 0 0 0-.742-1.342 1.067 1.067 0 0 0-1.32.757 1.07 1.07 0 0 0 .74 1.33l.296.047a1.07 1.07 0 0 0 1.026-.792zM210.56 155.419a1.083 1.083 0 0 0-.777-1.32 1.073 1.073 0 0 0-1.309.78c-.148.573.205 1.17.774 1.32l.275.034c.478 0 .91-.322 1.037-.814zM205.044 177.682a1.065 1.065 0 0 0-.786-1.307 1.064 1.064 0 0 0-1.297.792c-.137.584.204 1.169.786 1.306l.26.037c.48 0 .924-.333 1.037-.828zM199.747 200.005a1.092 1.092 0 0 0-.809-1.308 1.07 1.07 0 0 0-1.288.803c-.136.586.217 1.17.799 1.308l.25.024c.478 0 .922-.334 1.048-.827zM317.9 8.043a1.036 1.036 0 0 0-.16-1.433c-.433-.357-1.072-.276-1.426.16a1.025 1.025 0 0 0 .16 1.434c.183.15.41.22.627.22.297 0 .593-.13.799-.381zM303.836 26.1a1.025 1.025 0 0 0-.182-1.434 1.024 1.024 0 0 0-1.426.183v.012a1.023 1.023 0 0 0 .183 1.422c.194.149.41.207.615.207.308 0 .616-.136.81-.39zM290.127 44.42a1.04 1.04 0 0 0-.216-1.433 1.028 1.028 0 0 0-1.426.217 1.027 1.027 0 0 0 .821 1.63c.307 0 .615-.15.82-.414zM276.679 62.958a1.03 1.03 0 0 0-.228-1.433 1.016 1.016 0 0 0-1.414.242 1.016 1.016 0 0 0 .227 1.421c.182.127.389.185.593.185.32 0 .628-.14.822-.415zM263.449 81.647h-.012a1.023 1.023 0 0 0-.24-1.435 1.005 1.005 0 0 0-1.403.253h-.01c-.32.46-.206 1.091.25 1.423a.977.977 0 0 0 .581.183c.32 0 .628-.15.834-.424zM251.085 100.782a1.019 1.019 0 0 0-.388-1.388 1.006 1.006 0 0 0-1.379.39v.01a1.016 1.016 0 0 0 .387 1.377.97.97 0 0 0 .49.128 1 1 0 0 0 .89-.517zM241.217 121.339a1.015 1.015 0 0 0-1.87-.792 1.032 1.032 0 0 0 .536 1.342c.137.046.263.08.398.08.4 0 .766-.24.936-.63zM233.075 142.711a1.02 1.02 0 0 0-.616-1.295 1.004 1.004 0 0 0-1.29.63 1.012 1.012 0 0 0 .617 1.297c.113.033.227.057.33.057.422 0 .811-.264.96-.689zM226.048 164.509a1.012 1.012 0 0 0-.672-1.275 1.016 1.016 0 0 0-1.267.677c-.159.54.138 1.114.673 1.275l.298.045c.433 0 .843-.287.968-.722zM219.683 186.546a1.018 1.018 0 0 0-.707-1.262 1.004 1.004 0 0 0-1.244.71c-.158.541.16 1.102.697 1.252l.273.045c.446 0 .855-.299.981-.745zM213.604 208.663a1.018 1.018 0 0 0-1.962-.54c-.148.54.17 1.102.707 1.263l.273.035c.446 0 .857-.3.982-.758zM353.561 3.875h-.01a.964.964 0 0 0-.115-1.351.947.947 0 0 0-1.333.114.965.965 0 0 0 .114 1.354.965.965 0 0 0 .616.216.981.981 0 0 0 .728-.333zM339.08 21.565a.965.965 0 0 0-.137-1.342.952.952 0 0 0-1.344.138.955.955 0 0 0 .148 1.34c.17.15.388.219.592.219a.983.983 0 0 0 .742-.355zM324.827 39.448a.966.966 0 0 0-.16-1.34.952.952 0 0 0-1.333.158.967.967 0 0 0 .16 1.343c.17.137.375.207.58.207a.958.958 0 0 0 .753-.368zM310.722 57.469v-.012a.958.958 0 0 0-.172-1.34.944.944 0 0 0-1.332.17.968.968 0 0 0 .158 1.343c.183.124.389.194.594.194a.981.981 0 0 0 .752-.355zM296.65 75.513a.956.956 0 0 0-.158-1.342.955.955 0 0 0-1.334.16.966.966 0 0 0 .16 1.342.942.942 0 0 0 1.332-.16zM282.592 93.533a.959.959 0 0 0-.194-1.34.96.96 0 0 0-1.333.204.956.956 0 0 0 .204 1.33.953.953 0 0 0 .56.196c.295 0 .58-.137.763-.39zM270.423 112.77h.01a.971.971 0 0 0-.375-1.307.947.947 0 0 0-1.288.365.974.974 0 0 0 .365 1.309.97.97 0 0 0 .456.114.94.94 0 0 0 .832-.482zM260.203 133.174a.953.953 0 1 0-1.265.47.965.965 0 0 0 .4.093.955.955 0 0 0 .865-.563zM251.201 154.21a.955.955 0 0 0-.523-1.25.952.952 0 0 0-1.231.528.95.95 0 0 0 .877 1.319.95.95 0 0 0 .877-.596zM242.964 175.579a.958.958 0 0 0-.558-1.227.932.932 0 0 0-1.22.55.946.946 0 0 0 .56 1.226c.103.046.216.07.33.07.387 0 .74-.24.888-.62zM235.09 197.107c.183-.503-.067-1.054-.557-1.225a.942.942 0 0 0-1.22.572.936.936 0 0 0 .57 1.215l.32.059a.944.944 0 0 0 .887-.62zM375.33 16.349a.894.894 0 0 0-.103-1.261.882.882 0 0 0-1.253.103.918.918 0 0 0 .102 1.262.925.925 0 0 0 .581.205c.25 0 .503-.103.673-.31zM360.638 33.88a.87.87 0 0 0-.114-1.25.87.87 0 0 0-1.243.102.919.919 0 0 0 .104 1.262c.17.138.376.206.58.206.251 0 .502-.103.673-.32zM345.993 51.467a.88.88 0 0 0-.104-1.25.893.893 0 0 0-1.253.103.909.909 0 0 0 .114 1.262c.16.138.365.206.569.206a.845.845 0 0 0 .674-.321zM331.29 69.01a.882.882 0 0 0-.103-1.25.87.87 0 0 0-1.243.104.883.883 0 0 0 .103 1.249c.16.15.365.217.57.217.25 0 .5-.114.673-.32zM316.393 86.391a.907.907 0 0 0-.08-1.261.884.884 0 0 0-1.254.09.892.892 0 0 0 .08 1.25.89.89 0 0 0 .58.23c.252 0 .492-.103.674-.309zM302.021 104.07a.901.901 0 0 0-.206-1.25.888.888 0 0 0-1.242.207.9.9 0 0 0 .206 1.25.9.9 0 0 0 1.242-.206zM289.745 123.298a.881.881 0 0 0-.307-1.215.887.887 0 0 0-1.22.32.898.898 0 0 0 .764 1.342c.308 0 .604-.16.763-.447zM278.883 143.42v-.012a.895.895 0 0 0-.387-1.193c-.434-.229-.97-.046-1.198.39a.894.894 0 0 0 .389 1.192.872.872 0 0 0 .41.104c.32 0 .626-.183.786-.481zM268.877 163.988a.877.877 0 0 0-.422-1.18.867.867 0 0 0-1.174.423.88.88 0 0 0 .42 1.182c.127.057.251.092.377.092.331 0 .65-.195.799-.517zM259.349 184.832a.898.898 0 0 0-.445-1.181.896.896 0 0 0-1.174.449.906.906 0 0 0 .444 1.18.882.882 0 0 0 1.175-.448zM249.969 205.757a.885.885 0 0 0-.446-1.182.885.885 0 0 0-1.173.448h.012a.891.891 0 0 0 .432 1.181c.126.046.24.068.365.068.342 0 .66-.183.81-.515zM412.106 11.141h.011a.834.834 0 0 0-.08-1.168.823.823 0 0 0-1.162.08.836.836 0 0 0 .08 1.169.789.789 0 0 0 .536.207.789.789 0 0 0 .615-.288zM397.084 28.399a.837.837 0 0 0-.079-1.17.825.825 0 0 0-1.162.08.838.838 0 0 0 .079 1.171c.16.137.353.195.536.195a.834.834 0 0 0 .626-.276zM382.03 45.634a.835.835 0 0 0-.069-1.17.834.834 0 0 0-1.162.069v.011a.809.809 0 0 0 .069 1.157c.16.15.353.22.547.22a.823.823 0 0 0 .615-.287zM366.848 62.764a.835.835 0 0 0-.067-1.169.815.815 0 0 0-1.164.057.835.835 0 0 0 .07 1.17.77.77 0 0 0 .546.218.826.826 0 0 0 .615-.276zM351.394 79.656a.837.837 0 0 0-.034-1.17.823.823 0 0 0-1.162.034.813.813 0 0 0 .034 1.169c.16.15.354.23.558.23a.841.841 0 0 0 .604-.263zM335.61 96.202a.84.84 0 0 0-.056-1.182.835.835 0 0 0-1.163.058.834.834 0 0 0 .616 1.389.832.832 0 0 0 .603-.265zM321.352 113.964a.83.83 0 0 0-1.344-.975.833.833 0 0 0 .193 1.159.8.8 0 0 0 .48.16c.249 0 .512-.127.671-.344zM308.69 132.986v-.01a.825.825 0 0 0-.26-1.136.812.812 0 0 0-1.128.264.813.813 0 0 0 .262 1.134.756.756 0 0 0 .433.128.793.793 0 0 0 .693-.38zM297.044 152.664a.82.82 0 0 0-.307-1.123.82.82 0 0 0-1.129.309.84.84 0 0 0 .307 1.123.759.759 0 0 0 .41.116c.286 0 .56-.15.719-.425zM285.977 172.707a.823.823 0 1 0-1.447-.79.83.83 0 0 0 .331 1.122c.125.07.251.104.388.104.296 0 .581-.16.728-.436zM275.174 192.923a.847.847 0 0 0-.344-1.123.816.816 0 0 0-1.116.343v-.01a.849.849 0 0 0 .342 1.123.82.82 0 0 0 .387.104.83.83 0 0 0 .73-.437zM449.176 5.967a.775.775 0 0 0-.058-1.077.765.765 0 0 0-1.025 1.135.741.741 0 0 0 .513.196c.205 0 .41-.08.57-.254zM433.864 23.003l.012-.013a.775.775 0 0 0-.057-1.078.764.764 0 0 0-1.025 1.136c.148.138.33.195.512.195.206 0 .41-.08.558-.24zM418.499 39.956a.767.767 0 0 0-.046-1.078.756.756 0 0 0-1.073.046.767.767 0 0 0 .046 1.078.754.754 0 0 0 .514.207c.204 0 .41-.08.559-.253zM402.948 56.76a.775.775 0 0 0-.022-1.077.768.768 0 0 0-1.083.034.766.766 0 0 0 .034 1.08.752.752 0 0 0 1.071-.037zM387.09 73.28a.755.755 0 0 0-.01-1.079.755.755 0 0 0-1.072 0v.012a.755.755 0 0 0 .011 1.078.742.742 0 0 0 .524.217c.205 0 .399-.08.547-.227zM370.776 89.35h-.01a.767.767 0 0 0 .034-1.079.755.755 0 0 0-1.072-.032.763.763 0 1 0 1.048 1.112zM354.635 105.456a.768.768 0 0 0-.057-1.079.765.765 0 0 0-1.072.058.754.754 0 0 0 .057 1.078.732.732 0 0 0 .502.195c.217 0 .422-.08.57-.252zM340.248 123.178a.77.77 0 0 0-.148-1.068.77.77 0 0 0-1.07.15.768.768 0 0 0 .614 1.228.74.74 0 0 0 .604-.31zM327.025 141.84a.765.765 0 0 0-.206-1.066.76.76 0 0 0-1.048.207.772.772 0 0 0 .194 1.066.76.76 0 0 0 .433.127c.24 0 .479-.114.627-.333zM314.52 161.009a.762.762 0 0 0-.24-1.055.75.75 0 0 0-1.049.242.776.776 0 0 0 .24 1.054c.125.08.262.116.398.116.25 0 .503-.126.65-.357zM302.378 180.452a.762.762 0 0 0-.24-1.055.76.76 0 0 0-1.048.252v-.01a.766.766 0 0 0 .65 1.17.74.74 0 0 0 .638-.357zM290.35 199.965a.753.753 0 0 0-.239-1.055.757.757 0 0 0-1.048.241.767.767 0 0 0 .65 1.17c.25 0 .5-.127.637-.356zM486.81 1.464a.71.71 0 0 0-.032-.998.701.701 0 0 0-.992.047.707.707 0 0 0 .045.986.675.675 0 0 0 .467.183.677.677 0 0 0 .512-.218zM471.313 18.283a.7.7 0 0 0-1.026-.953.707.707 0 0 0 .513 1.182c.193 0 .376-.08.513-.229zM455.713 35.02a.708.708 0 0 0-.034-.996.686.686 0 0 0-.98.033.707.707 0 0 0 .022.986.71.71 0 0 0 .478.195c.183 0 .377-.08.514-.218zM439.896 51.563v-.01a.707.707 0 0 0-.012-.988.696.696 0 0 0-.98.012.697.697 0 0 0 .49 1.192.705.705 0 0 0 .502-.206zM423.748 67.773v.012a.71.71 0 0 0 .012-.998.684.684 0 0 0-.98-.011.696.696 0 0 0-.012.985c.137.15.32.219.49.219a.677.677 0 0 0 .49-.207zM407.146 83.526a.71.71 0 0 0 .045-.998.686.686 0 0 0-.979-.046.695.695 0 0 0-.057.987c.135.16.33.227.524.227.159 0 .33-.057.467-.17zM389.96 98.613a.7.7 0 0 0 .059-.998.695.695 0 0 0-.98-.057.694.694 0 0 0-.057.986.686.686 0 0 0 .978.069zM373.872 114.742a.696.696 0 0 0-.046-.985.686.686 0 0 0-.98.046.694.694 0 0 0 .045.984.685.685 0 0 0 .98-.045zM359.16 132.202a.7.7 0 1 0-1.095-.87.71.71 0 0 0 .115.985.701.701 0 0 0 .98-.115zM345.291 150.385a.7.7 0 0 0-.136-.975.695.695 0 0 0-.98.15.7.7 0 0 0 .558 1.112.666.666 0 0 0 .558-.287zM331.935 168.956a.686.686 0 0 0-.16-.974.68.68 0 0 0-.967.16.702.702 0 0 0 .159.975.667.667 0 0 0 .41.126.676.676 0 0 0 .558-.287zM318.798 187.713a.7.7 0 0 0-.173-.975.68.68 0 0 0-.967.171.695.695 0 0 0 .57 1.101.699.699 0 0 0 .57-.297zM305.635 206.456a.698.698 0 0 0-.159-.974.689.689 0 0 0-.969.16.692.692 0 0 0 .16.976.68.68 0 0 0 .399.137.694.694 0 0 0 .569-.3zM507.949 12.743a.64.64 0 0 0-.023-.896.62.62 0 0 0-.901.025.634.634 0 0 0 .022.892.651.651 0 0 0 .434.174.664.664 0 0 0 .468-.195zM492.16 29.318a.65.65 0 0 0-.01-.907.63.63 0 0 0-.901.023.635.635 0 0 0 .012.895.67.67 0 0 0 .444.184c.159 0 .331-.07.456-.195zM476.146 45.675a.64.64 0 0 0 0-.907.652.652 0 0 0-.9 0 .663.663 0 0 0 0 .907.62.62 0 0 0 .455.184c.16 0 .32-.057.445-.184zM459.789 61.687a.627.627 0 0 0 .023-.895.608.608 0 0 0-.889-.022.637.637 0 0 0-.023.895.613.613 0 0 0 .456.194c.159 0 .32-.057.433-.172zM442.976 77.218a.638.638 0 0 0 .057-.895.643.643 0 0 0-.901-.057.63.63 0 0 0-.046.896.606.606 0 0 0 .468.216c.16 0 .309-.045.422-.16zM425.558 92.073a.652.652 0 0 0 .091-.905.638.638 0 0 0-.887-.094.63.63 0 0 0-.091.896c.124.16.306.24.49.24a.64.64 0 0 0 .397-.137zM407.949 106.582v.013a.641.641 0 0 0 .046-.906.618.618 0 0 0-.89-.046.639.639 0 0 0 .422 1.112.601.601 0 0 0 .422-.173zM391.762 122.675a.649.649 0 0 0-.023-.905.63.63 0 0 0-.9.035.638.638 0 0 0 .023.895.65.65 0 0 0 .9-.025zM376.59 139.78a.654.654 0 0 0-.068-.908.63.63 0 0 0-.89.069.651.651 0 0 0 .07.906.6.6 0 0 0 .409.15.606.606 0 0 0 .48-.217zM362.046 157.444a.628.628 0 0 0-.09-.895.62.62 0 0 0-.89.092.64.64 0 0 0 .09.894.644.644 0 0 0 .89-.091zM347.854 175.383a.638.638 0 0 0-.101-.894.633.633 0 0 0-.89.114.641.641 0 0 0 .104.895.619.619 0 0 0 .887-.115zM333.754 193.461a.64.64 0 0 0-.102-.895.63.63 0 0 0-.888.104.64.64 0 0 0 .101.894.677.677 0 0 0 .4.138.655.655 0 0 0 .489-.24zM546.123 7.658a.578.578 0 0 0-.012-.813.57.57 0 0 0-.81.01.591.591 0 0 0 .012.814.573.573 0 0 0 .81-.012zM530.2 24.083a.556.556 0 0 0 0-.803.561.561 0 0 0-.808 0 .582.582 0 0 0 .01.815c.116.113.25.158.4.158a.533.533 0 0 0 .399-.17zM514.062 40.29a.565.565 0 0 0 0-.803.559.559 0 0 0-.8-.011.582.582 0 0 0-.01.814c.115.114.263.16.41.16a.555.555 0 0 0 .4-.16zM497.569 56.153v.01a.591.591 0 0 0 .035-.813.562.562 0 0 0-.81-.034.592.592 0 0 0-.034.814.612.612 0 0 0 .421.182.581.581 0 0 0 .388-.159zM480.634 71.534a.58.58 0 0 0 .056-.814.563.563 0 0 0-.81-.045.568.568 0 0 0 .377.997.593.593 0 0 0 .377-.138zM463.114 86.25a.584.584 0 0 0 .091-.814.573.573 0 0 0-.797-.09.584.584 0 0 0-.091.813.58.58 0 0 0 .444.218.57.57 0 0 0 .353-.127zM444.89 100.063a.575.575 0 0 0 .135-.803.575.575 0 0 0-.796-.126.574.574 0 0 0-.137.803.61.61 0 0 0 .467.24c.114 0 .24-.035.33-.114zM427.246 114.47a.565.565 0 0 0 .034-.803.55.55 0 0 0-.798-.046.567.567 0 0 0-.045.803.567.567 0 0 0 .81.045zM410.8 130.31a.574.574 0 0 0 0-.802.561.561 0 0 0-.809 0 .579.579 0 0 0 0 .813.575.575 0 0 0 .81-.012zM395.128 146.953a.582.582 0 0 0-.034-.815.573.573 0 0 0-.81.035.59.59 0 0 0 .036.814c.113.103.25.149.387.149a.552.552 0 0 0 .421-.183zM379.925 164.03a.567.567 0 0 0-.058-.802.55.55 0 0 0-.797.047.59.59 0 0 0 .045.812c.115.092.251.138.376.138.16 0 .32-.068.434-.195zM364.948 181.327a.575.575 0 1 0-.866-.757.593.593 0 0 0 .057.814.583.583 0 0 0 .81-.057zM349.984 198.667a.583.583 0 0 0-.058-.813.561.561 0 0 0-.798.058.58.58 0 0 0 .057.813.555.555 0 0 0 .365.137c.16 0 .32-.068.434-.195z"/></g></g></svg>